<?xml version="1.0" encoding="utf-8"?>
<!-- Generator: Adobe Illustrator 15.1.0, SVG Export Plug-In . SVG Version: 6.00 Build 0)  -->
<!DOCTYPE svg PUBLIC "-//W3C//DTD SVG 1.1//EN" "http://www.w3.org/Graphics/SVG/1.1/DTD/svg11.dtd">
<svg version="1.1" id="Layer_1" xmlns="http://www.w3.org/2000/svg" xmlns:xlink="http://www.w3.org/1999/xlink" x="0px" y="0px"
	 width="1344px" height="128px" viewBox="0 0 1344 128" enable-background="new 0 0 1344 128" xml:space="preserve">
<g>
	<g opacity="0.67">
		<path fill="none" stroke="#768065" d="M146.937,64.108c0,10.199-8.269,18.475-18.476,18.475c-10.257,0-18.524-8.275-18.524-18.475
			c0-10.23,8.267-18.525,18.524-18.525C138.667,45.583,146.937,53.878,146.937,64.108z"/>
	</g>
	<circle fill="#231F20" cx="128.437" cy="64.084" r="1.5"/>
</g>
<circle fill="none" stroke="#768065" stroke-miterlimit="10" cx="256.308" cy="63.999" r="2.053"/>
<circle fill="none" stroke="#768065" stroke-miterlimit="10" cx="256.307" cy="63.999" r="2.257"/>
<path fill="none" stroke="#768065" stroke-miterlimit="10" d="M253.826,63.999c0-1.369,1.111-2.48,2.48-2.48
	c1.37,0,2.485,1.111,2.485,2.48c0,1.373-1.115,2.482-2.485,2.482C254.937,66.48,253.826,65.371,253.826,63.999z"/>
<path fill="none" stroke="#768065" stroke-miterlimit="10" d="M253.577,63.999c0-1.506,1.223-2.73,2.729-2.73
	c1.506,0,2.735,1.225,2.735,2.73c0,1.511-1.229,2.732-2.735,2.732C254.799,66.73,253.577,65.51,253.577,63.999z"/>
<path fill="none" stroke="#768065" stroke-miterlimit="10" d="M253.303,63.997c0-1.656,1.344-3,3.002-3c1.659,0,3.008,1.344,3.008,3
	c0,1.662-1.352,3.007-3.008,3.007C254.647,67.004,253.303,65.658,253.303,63.997z"/>
<path fill="none" stroke="#768065" stroke-miterlimit="10" d="M250.809,63.992c0-3.034,2.462-5.491,5.493-5.491
	c3.036,0,5.507,2.46,5.507,5.491c0,3.047-2.471,5.508-5.507,5.508C253.271,69.5,250.809,67.039,250.809,63.992z"/>
<path fill="none" stroke="#768065" stroke-miterlimit="10" d="M248.81,64.123c-0.074-4.134,3.223-7.548,7.354-7.622
	c4.142-0.073,7.568,3.221,7.643,7.355c0.073,4.154-3.234,7.57-7.375,7.642C252.299,71.572,248.884,68.275,248.81,64.123z"/>
<path fill="none" stroke="#768065" stroke-miterlimit="10" d="M246.809,63.985c0-5.232,4.253-9.484,9.485-9.484
	c5.249,0,9.515,4.252,9.515,9.484c0,5.265-4.266,9.515-9.515,9.515C251.06,73.5,246.809,69.25,246.809,63.985z"/>
<path fill="none" stroke="#768065" stroke-miterlimit="10" d="M244.309,63.979c0-6.607,5.372-11.979,11.979-11.979
	c6.63,0,12.021,5.369,12.021,11.979c0,6.65-5.391,12.021-12.021,12.021C249.685,76,244.309,70.629,244.309,63.979z"/>
<circle fill="#231F20" cx="256.308" cy="64" r="4"/>
<circle fill="none" stroke="#768065" stroke-miterlimit="10" cx="384.432" cy="63.999" r="2.054"/>
<circle fill="none" stroke="#768065" stroke-miterlimit="10" cx="384.431" cy="63.999" r="2.257"/>
<path fill="none" stroke="#768065" stroke-miterlimit="10" d="M381.949,63.998c0-1.369,1.111-2.48,2.48-2.48
	c1.37,0,2.485,1.111,2.485,2.48c0,1.373-1.115,2.482-2.485,2.482C383.061,66.48,381.949,65.371,381.949,63.998z"/>
<path fill="none" stroke="#768065" stroke-miterlimit="10" d="M381.7,63.998c0-1.506,1.223-2.73,2.729-2.73
	c1.506,0,2.735,1.225,2.735,2.73c0,1.512-1.229,2.732-2.735,2.732C382.923,66.73,381.7,65.51,381.7,63.998z"/>
<path fill="none" stroke="#768065" stroke-miterlimit="10" d="M381.427,63.996c0-1.656,1.344-3,3.002-3c1.659,0,3.008,1.344,3.008,3
	c0,1.661-1.352,3.007-3.008,3.007C382.771,67.003,381.427,65.657,381.427,63.996z"/>
<path fill="none" stroke="#768065" stroke-miterlimit="10" d="M378.932,63.991c0-3.034,2.462-5.491,5.493-5.491
	c3.036,0,5.507,2.46,5.507,5.491c0,3.048-2.471,5.508-5.507,5.508C381.394,69.499,378.932,67.039,378.932,63.991z"/>
<path fill="none" stroke="#768065" stroke-miterlimit="10" d="M376.934,64.122c-0.074-4.134,3.223-7.548,7.354-7.622
	c4.142-0.073,7.568,3.221,7.643,7.355c0.073,4.153-3.234,7.569-7.375,7.643C380.423,71.572,377.008,68.275,376.934,64.122z"/>
<path fill="none" stroke="#768065" stroke-miterlimit="10" d="M374.932,63.984c0-5.232,4.253-9.484,9.485-9.484
	c5.249,0,9.515,4.252,9.515,9.484c0,5.265-4.266,9.515-9.515,9.515C379.183,73.499,374.932,69.249,374.932,63.984z"/>
<path fill="none" stroke="#768065" stroke-miterlimit="10" d="M372.432,63.979c0-6.607,5.372-11.979,11.979-11.979
	c6.63,0,12.021,5.369,12.021,11.979c0,6.65-5.391,12.021-12.021,12.021C377.808,76,372.432,70.629,372.432,63.979z"/>
<path fill="none" stroke="#768065" stroke-miterlimit="10" d="M369.932,63.973c0-7.986,6.494-14.474,14.479-14.474
	c8.01,0,14.521,6.489,14.521,14.474c0,8.038-6.512,14.527-14.521,14.527C376.426,78.5,369.932,72.011,369.932,63.973z"/>
<path fill="none" stroke="#768065" stroke-miterlimit="10" d="M367.182,63.969c0-9.5,7.728-17.219,17.224-17.219
	c9.531,0,17.276,7.719,17.276,17.219c0,9.562-7.745,17.28-17.276,17.28C374.91,81.249,367.182,73.53,367.182,63.969z"/>
<circle fill="#231F20" cx="384.432" cy="64" r="4"/>
<circle fill="none" stroke="#768065" stroke-miterlimit="10" cx="512.132" cy="63.991" r="2.053"/>
<circle fill="none" stroke="#768065" stroke-miterlimit="10" cx="512.131" cy="63.991" r="2.257"/>
<path fill="none" stroke="#768065" stroke-miterlimit="10" d="M509.649,63.991c0-1.369,1.111-2.48,2.48-2.48
	c1.37,0,2.485,1.111,2.485,2.48c0,1.373-1.115,2.482-2.485,2.482C510.761,66.473,509.649,65.363,509.649,63.991z"/>
<path fill="none" stroke="#768065" stroke-miterlimit="10" d="M509.4,63.991c0-1.506,1.223-2.73,2.729-2.73
	c1.506,0,2.735,1.225,2.735,2.73c0,1.511-1.229,2.732-2.735,2.732C510.623,66.723,509.4,65.502,509.4,63.991z"/>
<path fill="none" stroke="#768065" stroke-miterlimit="10" d="M509.127,63.989c0-1.656,1.344-3,3.002-3c1.659,0,3.008,1.344,3.008,3
	c0,1.662-1.352,3.007-3.008,3.007C510.471,66.996,509.127,65.65,509.127,63.989z"/>
<path fill="none" stroke="#768065" stroke-miterlimit="10" d="M506.632,63.984c0-3.034,2.462-5.491,5.493-5.491
	c3.036,0,5.507,2.46,5.507,5.491c0,3.047-2.471,5.508-5.507,5.508C509.094,69.492,506.632,67.031,506.632,63.984z"/>
<path fill="none" stroke="#768065" stroke-miterlimit="10" d="M504.634,64.115c-0.074-4.134,3.223-7.548,7.354-7.622
	c4.142-0.073,7.568,3.221,7.643,7.355c0.073,4.154-3.234,7.57-7.375,7.642C508.123,71.564,504.708,68.268,504.634,64.115z"/>
<path fill="none" stroke="#768065" stroke-miterlimit="10" d="M502.632,63.977c0-5.232,4.253-9.484,9.485-9.484
	c5.249,0,9.515,4.252,9.515,9.484c0,5.265-4.266,9.515-9.515,9.515C506.883,73.492,502.632,69.242,502.632,63.977z"/>
<path fill="none" stroke="#768065" stroke-miterlimit="10" d="M500.132,63.971c0-6.607,5.372-11.979,11.979-11.979
	c6.63,0,12.021,5.369,12.021,11.979c0,6.65-5.391,12.021-12.021,12.021C505.508,75.992,500.132,70.621,500.132,63.971z"/>
<path fill="none" stroke="#768065" stroke-miterlimit="10" d="M497.632,63.965c0-7.986,6.494-14.474,14.479-14.474
	c8.01,0,14.521,6.489,14.521,14.474c0,8.039-6.512,14.527-14.521,14.527C504.126,78.492,497.632,72.004,497.632,63.965z"/>
<path fill="none" stroke="#768065" stroke-miterlimit="10" d="M494.882,63.961c0-9.5,7.728-17.219,17.224-17.219
	c9.531,0,17.276,7.719,17.276,17.219c0,9.562-7.745,17.281-17.276,17.281C502.61,81.242,494.882,73.523,494.882,63.961z"/>
<path fill="none" stroke="#768065" stroke-miterlimit="10" d="M491.632,63.954c0-11.287,9.183-20.461,20.469-20.461
	c11.328,0,20.531,9.174,20.531,20.461c0,11.365-9.203,20.539-20.531,20.539C500.813,84.492,491.632,75.318,491.632,63.954z"/>
<circle fill="#231F20" cx="512.132" cy="63.992" r="4"/>
<circle fill="none" stroke="#768065" stroke-miterlimit="10" cx="640.254" cy="63.999" r="2.054"/>
<circle fill="none" stroke="#768065" stroke-miterlimit="10" cx="640.253" cy="63.999" r="2.257"/>
<path fill="none" stroke="#768065" stroke-miterlimit="10" d="M637.772,63.998c0-1.369,1.111-2.48,2.48-2.48
	c1.37,0,2.485,1.111,2.485,2.48c0,1.373-1.115,2.482-2.485,2.482C638.883,66.48,637.772,65.371,637.772,63.998z"/>
<path fill="none" stroke="#768065" stroke-miterlimit="10" d="M637.523,63.998c0-1.506,1.223-2.73,2.729-2.73
	c1.506,0,2.735,1.225,2.735,2.73c0,1.512-1.229,2.732-2.735,2.732C638.746,66.73,637.523,65.51,637.523,63.998z"/>
<path fill="none" stroke="#768065" stroke-miterlimit="10" d="M637.25,63.996c0-1.656,1.344-3,3.002-3c1.659,0,3.008,1.344,3.008,3
	c0,1.661-1.352,3.007-3.008,3.007C638.593,67.003,637.25,65.657,637.25,63.996z"/>
<path fill="none" stroke="#768065" stroke-miterlimit="10" d="M634.755,63.991c0-3.034,2.462-5.491,5.493-5.491
	c3.036,0,5.507,2.46,5.507,5.491c0,3.048-2.471,5.508-5.507,5.508C637.217,69.499,634.755,67.039,634.755,63.991z"/>
<path fill="none" stroke="#768065" stroke-miterlimit="10" d="M632.756,64.122c-0.074-4.134,3.223-7.548,7.354-7.622
	c4.142-0.073,7.568,3.221,7.643,7.355c0.073,4.153-3.234,7.569-7.375,7.643C636.246,71.572,632.831,68.275,632.756,64.122z"/>
<path fill="none" stroke="#768065" stroke-miterlimit="10" d="M630.755,63.984c0-5.232,4.253-9.484,9.485-9.484
	c5.249,0,9.515,4.252,9.515,9.484c0,5.265-4.266,9.515-9.515,9.515C635.006,73.499,630.755,69.249,630.755,63.984z"/>
<path fill="none" stroke="#768065" stroke-miterlimit="10" d="M628.255,63.979c0-6.607,5.372-11.979,11.979-11.979
	c6.63,0,12.021,5.369,12.021,11.979c0,6.65-5.391,12.021-12.021,12.021C633.631,76,628.255,70.629,628.255,63.979z"/>
<path fill="none" stroke="#768065" stroke-miterlimit="10" d="M625.755,63.973c0-7.986,6.494-14.474,14.479-14.474
	c8.01,0,14.521,6.489,14.521,14.474c0,8.038-6.512,14.527-14.521,14.527C632.249,78.5,625.755,72.011,625.755,63.973z"/>
<path fill="none" stroke="#768065" stroke-miterlimit="10" d="M623.005,63.969c0-9.5,7.728-17.219,17.224-17.219
	c9.531,0,17.276,7.719,17.276,17.219c0,9.562-7.745,17.28-17.276,17.28C630.732,81.249,623.005,73.53,623.005,63.969z"/>
<path fill="none" stroke="#768065" stroke-miterlimit="10" d="M619.755,63.961c0-11.287,9.183-20.461,20.469-20.461
	c11.328,0,20.531,9.174,20.531,20.461c0,11.364-9.203,20.538-20.531,20.538C628.936,84.499,619.755,75.325,619.755,63.961z"/>
<path fill="none" stroke="#768065" stroke-miterlimit="10" d="M616.255,63.953c0-13.217,10.75-23.953,23.96-23.953
	c13.264,0,24.04,10.736,24.04,23.953c0,13.31-10.776,24.046-24.04,24.046C627.004,87.999,616.255,77.263,616.255,63.953z"/>
<path fill="none" stroke="#768065" stroke-miterlimit="10" d="M612.255,63.946c0-15.417,12.541-27.946,27.954-27.946
	c15.473,0,28.046,12.529,28.046,27.946c0,15.524-12.572,28.053-28.046,28.053C624.796,92.001,612.255,79.471,612.255,63.946z"/>
<circle fill="#231F20" cx="640.254" cy="64" r="4"/>
<circle fill="none" stroke="#768065" stroke-miterlimit="10" cx="768.379" cy="63.999" r="2.053"/>
<circle fill="none" stroke="#768065" stroke-miterlimit="10" cx="768.378" cy="63.999" r="2.257"/>
<path fill="none" stroke="#768065" stroke-miterlimit="10" d="M765.896,63.999c0-1.369,1.111-2.48,2.48-2.48
	c1.37,0,2.485,1.111,2.485,2.48c0,1.373-1.115,2.482-2.485,2.482C767.008,66.48,765.896,65.371,765.896,63.999z"/>
<path fill="none" stroke="#768065" stroke-miterlimit="10" d="M765.647,63.999c0-1.506,1.223-2.73,2.729-2.73
	c1.506,0,2.735,1.225,2.735,2.73c0,1.511-1.229,2.732-2.735,2.732C766.87,66.73,765.647,65.51,765.647,63.999z"/>
<path fill="none" stroke="#768065" stroke-miterlimit="10" d="M765.374,63.997c0-1.656,1.344-3,3.002-3c1.659,0,3.008,1.344,3.008,3
	c0,1.662-1.352,3.007-3.008,3.007C766.718,67.004,765.374,65.658,765.374,63.997z"/>
<path fill="none" stroke="#768065" stroke-miterlimit="10" d="M762.879,63.992c0-3.034,2.462-5.491,5.493-5.491
	c3.036,0,5.507,2.46,5.507,5.491c0,3.047-2.471,5.508-5.507,5.508C765.341,69.5,762.879,67.039,762.879,63.992z"/>
<path fill="none" stroke="#768065" stroke-miterlimit="10" d="M760.881,64.123c-0.074-4.134,3.223-7.548,7.354-7.622
	c4.142-0.073,7.568,3.221,7.643,7.355c0.073,4.154-3.234,7.57-7.375,7.642C764.37,71.572,760.955,68.275,760.881,64.123z"/>
<path fill="none" stroke="#768065" stroke-miterlimit="10" d="M758.879,63.985c0-5.232,4.253-9.484,9.485-9.484
	c5.249,0,9.515,4.252,9.515,9.484c0,5.265-4.266,9.515-9.515,9.515C763.13,73.5,758.879,69.25,758.879,63.985z"/>
<path fill="none" stroke="#768065" stroke-miterlimit="10" d="M756.379,63.979c0-6.607,5.372-11.979,11.979-11.979
	c6.63,0,12.021,5.369,12.021,11.979c0,6.65-5.391,12.021-12.021,12.021C761.755,76,756.379,70.629,756.379,63.979z"/>
<path fill="none" stroke="#768065" stroke-miterlimit="10" d="M753.879,63.973c0-7.986,6.494-14.474,14.479-14.474
	c8.01,0,14.521,6.489,14.521,14.474c0,8.039-6.512,14.527-14.521,14.527C760.374,78.5,753.879,72.012,753.879,63.973z"/>
<path fill="none" stroke="#768065" stroke-miterlimit="10" d="M751.129,63.969c0-9.5,7.728-17.219,17.224-17.219
	c9.531,0,17.276,7.719,17.276,17.219c0,9.562-7.745,17.281-17.276,17.281C758.857,81.25,751.129,73.531,751.129,63.969z"/>
<path fill="none" stroke="#768065" stroke-miterlimit="10" d="M747.879,63.961c0-11.287,9.183-20.461,20.469-20.461
	c11.328,0,20.531,9.174,20.531,20.461c0,11.365-9.203,20.539-20.531,20.539C757.061,84.5,747.879,75.326,747.879,63.961z"/>
<path fill="none" stroke="#768065" stroke-miterlimit="10" d="M744.379,63.954c0-13.217,10.75-23.953,23.96-23.953
	c13.264,0,24.04,10.736,24.04,23.953c0,13.31-10.776,24.046-24.04,24.046C755.129,88,744.379,77.264,744.379,63.954z"/>
<path fill="none" stroke="#768065" stroke-miterlimit="10" d="M740.379,63.947C740.379,48.53,752.92,36,768.333,36
	c15.473,0,28.046,12.529,28.046,27.946c0,15.524-12.572,28.053-28.046,28.053C752.92,92.002,740.379,79.471,740.379,63.947z"/>
<circle fill="#231F20" cx="768.379" cy="64" r="4"/>
<path fill="none" stroke="#768065" stroke-miterlimit="10" d="M735.379,63.937C735.379,45.766,750.16,31,768.325,31
	c18.236,0,33.055,14.766,33.055,32.937c0,18.297-14.816,33.063-33.055,33.063C750.16,97.002,735.379,82.234,735.379,63.937z"/>
<circle fill="none" stroke="#768065" stroke-miterlimit="10" cx="896.502" cy="63.998" r="2.053"/>
<circle fill="none" stroke="#768065" stroke-miterlimit="10" cx="896.501" cy="63.998" r="2.257"/>
<path fill="none" stroke="#768065" stroke-miterlimit="10" d="M894.02,63.998c0-1.369,1.111-2.48,2.48-2.48
	c1.37,0,2.485,1.111,2.485,2.48c0,1.373-1.115,2.482-2.485,2.482C895.131,66.479,894.02,65.37,894.02,63.998z"/>
<path fill="none" stroke="#768065" stroke-miterlimit="10" d="M893.771,63.998c0-1.506,1.223-2.73,2.729-2.73
	c1.506,0,2.735,1.225,2.735,2.73c0,1.511-1.229,2.732-2.735,2.732C894.994,66.729,893.771,65.509,893.771,63.998z"/>
<path fill="none" stroke="#768065" stroke-miterlimit="10" d="M893.498,63.996c0-1.656,1.344-3,3.002-3c1.659,0,3.008,1.344,3.008,3
	c0,1.662-1.352,3.007-3.008,3.007C894.841,67.003,893.498,65.657,893.498,63.996z"/>
<path fill="none" stroke="#768065" stroke-miterlimit="10" d="M891.003,63.991c0-3.034,2.462-5.491,5.493-5.491
	c3.036,0,5.507,2.46,5.507,5.491c0,3.047-2.471,5.508-5.507,5.508C893.465,69.499,891.003,67.038,891.003,63.991z"/>
<path fill="none" stroke="#768065" stroke-miterlimit="10" d="M889.004,64.122c-0.074-4.134,3.223-7.548,7.354-7.622
	c4.142-0.073,7.568,3.221,7.643,7.355c0.073,4.154-3.234,7.57-7.375,7.642C892.494,71.571,889.079,68.274,889.004,64.122z"/>
<path fill="none" stroke="#768065" stroke-miterlimit="10" d="M887.003,63.984c0-5.232,4.253-9.484,9.485-9.484
	c5.249,0,9.515,4.252,9.515,9.484c0,5.265-4.266,9.515-9.515,9.515C891.254,73.499,887.003,69.249,887.003,63.984z"/>
<path fill="none" stroke="#768065" stroke-miterlimit="10" d="M884.503,63.978c0-6.607,5.372-11.979,11.979-11.979
	c6.63,0,12.021,5.369,12.021,11.979c0,6.65-5.391,12.021-12.021,12.021C889.879,75.999,884.503,70.628,884.503,63.978z"/>
<path fill="none" stroke="#768065" stroke-miterlimit="10" d="M882.003,63.972c0-7.986,6.494-14.474,14.479-14.474
	c8.01,0,14.521,6.489,14.521,14.474c0,8.039-6.512,14.527-14.521,14.527C888.497,78.499,882.003,72.011,882.003,63.972z"/>
<path fill="none" stroke="#768065" stroke-miterlimit="10" d="M879.253,63.968c0-9.5,7.728-17.219,17.224-17.219
	c9.531,0,17.276,7.719,17.276,17.219c0,9.562-7.745,17.281-17.276,17.281C886.98,81.249,879.253,73.53,879.253,63.968z"/>
<path fill="none" stroke="#768065" stroke-miterlimit="10" d="M876.003,63.96c0-11.287,9.183-20.461,20.469-20.461
	c11.328,0,20.531,9.174,20.531,20.461c0,11.365-9.203,20.539-20.531,20.539C885.184,84.499,876.003,75.325,876.003,63.96z"/>
<path fill="none" stroke="#768065" stroke-miterlimit="10" d="M872.503,63.953c0-13.217,10.75-23.953,23.96-23.953
	c13.264,0,24.04,10.736,24.04,23.953c0,13.31-10.776,24.046-24.04,24.046C883.252,87.999,872.503,77.263,872.503,63.953z"/>
<path fill="none" stroke="#768065" stroke-miterlimit="10" d="M868.503,63.946c0-15.417,12.541-27.946,27.954-27.946
	c15.473,0,28.046,12.529,28.046,27.946c0,15.524-12.572,28.053-28.046,28.053C881.044,92.001,868.503,79.47,868.503,63.946z"/>
<path fill="none" stroke="#768065" stroke-miterlimit="10" d="M857.003,63.923c0-21.748,17.69-39.424,39.437-39.424
	c21.828,0,39.563,17.676,39.563,39.424c0,21.902-17.735,39.576-39.563,39.576C874.693,103.499,857.003,85.825,857.003,63.923z"/>
<circle fill="#231F20" cx="896.502" cy="63.999" r="4"/>
<path fill="none" stroke="#768065" stroke-miterlimit="10" d="M863.503,63.936c0-18.171,14.781-32.937,32.945-32.937
	c18.236,0,33.055,14.766,33.055,32.937c0,18.297-14.816,33.063-33.055,33.063C878.284,97.001,863.503,82.233,863.503,63.936z"/>
<circle fill="none" stroke="#768065" stroke-miterlimit="10" cx="1024.202" cy="63.999" r="2.053"/>
<circle fill="none" stroke="#768065" stroke-miterlimit="10" cx="1024.201" cy="63.999" r="2.257"/>
<path fill="none" stroke="#768065" stroke-miterlimit="10" d="M1021.719,63.999c0-1.369,1.111-2.48,2.48-2.48
	c1.37,0,2.485,1.111,2.485,2.48c0,1.373-1.115,2.482-2.485,2.482C1022.831,66.48,1021.719,65.371,1021.719,63.999z"/>
<path fill="none" stroke="#768065" stroke-miterlimit="10" d="M1021.47,63.999c0-1.506,1.223-2.73,2.729-2.73
	c1.506,0,2.735,1.225,2.735,2.73c0,1.511-1.229,2.732-2.735,2.732C1022.693,66.73,1021.47,65.51,1021.47,63.999z"/>
<path fill="none" stroke="#768065" stroke-miterlimit="10" d="M1021.197,63.997c0-1.656,1.344-3,3.002-3
	c1.659,0,3.008,1.344,3.008,3c0,1.662-1.352,3.007-3.008,3.007C1022.541,67.004,1021.197,65.658,1021.197,63.997z"/>
<path fill="none" stroke="#768065" stroke-miterlimit="10" d="M1018.702,63.992c0-3.034,2.462-5.491,5.493-5.491
	c3.036,0,5.507,2.46,5.507,5.491c0,3.047-2.471,5.508-5.507,5.508C1021.164,69.5,1018.702,67.039,1018.702,63.992z"/>
<path fill="none" stroke="#768065" stroke-miterlimit="10" d="M1016.704,64.123c-0.074-4.134,3.223-7.548,7.354-7.622
	c4.142-0.073,7.568,3.221,7.643,7.355c0.073,4.154-3.234,7.57-7.375,7.642C1020.193,71.572,1016.778,68.275,1016.704,64.123z"/>
<path fill="none" stroke="#768065" stroke-miterlimit="10" d="M1014.702,63.985c0-5.232,4.253-9.484,9.485-9.484
	c5.249,0,9.515,4.252,9.515,9.484c0,5.265-4.266,9.515-9.515,9.515C1018.953,73.5,1014.702,69.25,1014.702,63.985z"/>
<path fill="none" stroke="#768065" stroke-miterlimit="10" d="M1012.202,63.979c0-6.607,5.372-11.979,11.979-11.979
	c6.63,0,12.021,5.369,12.021,11.979c0,6.65-5.391,12.021-12.021,12.021C1017.578,76,1012.202,70.629,1012.202,63.979z"/>
<path fill="none" stroke="#768065" stroke-miterlimit="10" d="M1009.702,63.973c0-7.986,6.494-14.474,14.479-14.474
	c8.01,0,14.521,6.489,14.521,14.474c0,8.039-6.512,14.527-14.521,14.527C1016.196,78.5,1009.702,72.012,1009.702,63.973z"/>
<path fill="none" stroke="#768065" stroke-miterlimit="10" d="M1006.952,63.969c0-9.5,7.728-17.219,17.224-17.219
	c9.531,0,17.276,7.719,17.276,17.219c0,9.562-7.745,17.281-17.276,17.281C1014.68,81.25,1006.952,73.531,1006.952,63.969z"/>
<path fill="none" stroke="#768065" stroke-miterlimit="10" d="M1003.702,63.961c0-11.287,9.183-20.461,20.469-20.461
	c11.328,0,20.531,9.174,20.531,20.461c0,11.365-9.203,20.539-20.531,20.539C1012.883,84.5,1003.702,75.326,1003.702,63.961z"/>
<path fill="none" stroke="#768065" stroke-miterlimit="10" d="M1000.202,63.954c0-13.217,10.75-23.953,23.96-23.953
	c13.264,0,24.04,10.736,24.04,23.953c0,13.31-10.776,24.046-24.04,24.046C1010.952,88,1000.202,77.264,1000.202,63.954z"/>
<path fill="none" stroke="#768065" stroke-miterlimit="10" d="M996.202,63.947c0-15.417,12.541-27.946,27.954-27.946
	c15.473,0,28.046,12.529,28.046,27.946c0,15.524-12.572,28.053-28.046,28.053C1008.743,92.002,996.202,79.471,996.202,63.947z"/>
<path fill="none" stroke="#768065" stroke-miterlimit="10" d="M984.702,63.924c0-21.748,17.69-39.424,39.437-39.424
	c21.828,0,39.563,17.676,39.563,39.424c0,21.902-17.735,39.576-39.563,39.576C1002.392,103.5,984.702,85.826,984.702,63.924z"/>
<circle fill="#231F20" cx="1024.202" cy="64" r="4"/>
<path fill="none" stroke="#768065" stroke-miterlimit="10" d="M991.202,63.937c0-18.171,14.781-32.937,32.945-32.937
	c18.236,0,33.055,14.766,33.055,32.937c0,18.297-14.816,33.063-33.055,33.063C1005.983,97.002,991.202,82.234,991.202,63.937z"/>
<path fill="none" stroke="#768065" stroke-miterlimit="10" d="M977.702,63.907c0-25.603,20.826-46.406,46.423-46.406
	c25.698,0,46.577,20.805,46.577,46.406c0,25.781-20.879,46.593-46.577,46.593C998.528,110.5,977.702,89.688,977.702,63.907z"/>
<circle fill="none" stroke="#768065" stroke-miterlimit="10" cx="1152.325" cy="63.999" r="2.054"/>
<circle fill="none" stroke="#768065" stroke-miterlimit="10" cx="1152.324" cy="63.999" r="2.257"/>
<path fill="none" stroke="#768065" stroke-miterlimit="10" d="M1149.842,63.998c0-1.369,1.111-2.48,2.48-2.48
	c1.37,0,2.485,1.111,2.485,2.48c0,1.373-1.115,2.482-2.485,2.482C1150.954,66.48,1149.842,65.371,1149.842,63.998z"/>
<path fill="none" stroke="#768065" stroke-miterlimit="10" d="M1149.593,63.998c0-1.506,1.223-2.73,2.729-2.73
	c1.506,0,2.735,1.225,2.735,2.73c0,1.512-1.229,2.732-2.735,2.732C1150.816,66.73,1149.593,65.51,1149.593,63.998z"/>
<path fill="none" stroke="#768065" stroke-miterlimit="10" d="M1149.32,63.996c0-1.656,1.344-3,3.002-3c1.659,0,3.008,1.344,3.008,3
	c0,1.661-1.352,3.007-3.008,3.007C1150.664,67.003,1149.32,65.657,1149.32,63.996z"/>
<path fill="none" stroke="#768065" stroke-miterlimit="10" d="M1146.825,63.991c0-3.034,2.462-5.491,5.493-5.491
	c3.036,0,5.507,2.46,5.507,5.491c0,3.048-2.471,5.508-5.507,5.508C1149.287,69.499,1146.825,67.039,1146.825,63.991z"/>
<path fill="none" stroke="#768065" stroke-miterlimit="10" d="M1144.827,64.122c-0.074-4.134,3.223-7.548,7.354-7.622
	c4.142-0.073,7.568,3.221,7.643,7.355c0.073,4.153-3.234,7.569-7.375,7.643C1148.316,71.572,1144.901,68.275,1144.827,64.122z"/>
<path fill="none" stroke="#768065" stroke-miterlimit="10" d="M1142.825,63.984c0-5.232,4.253-9.484,9.485-9.484
	c5.249,0,9.515,4.252,9.515,9.484c0,5.265-4.266,9.515-9.515,9.515C1147.076,73.499,1142.825,69.249,1142.825,63.984z"/>
<path fill="none" stroke="#768065" stroke-miterlimit="10" d="M1140.325,63.979c0-6.607,5.372-11.979,11.979-11.979
	c6.63,0,12.021,5.369,12.021,11.979c0,6.65-5.391,12.021-12.021,12.021C1145.701,76,1140.325,70.629,1140.325,63.979z"/>
<path fill="none" stroke="#768065" stroke-miterlimit="10" d="M1137.825,63.973c0-7.986,6.494-14.474,14.479-14.474
	c8.01,0,14.521,6.489,14.521,14.474c0,8.038-6.512,14.527-14.521,14.527C1144.319,78.5,1137.825,72.011,1137.825,63.973z"/>
<path fill="none" stroke="#768065" stroke-miterlimit="10" d="M1135.075,63.969c0-9.5,7.728-17.219,17.224-17.219
	c9.531,0,17.276,7.719,17.276,17.219c0,9.562-7.745,17.28-17.276,17.28C1142.803,81.249,1135.075,73.53,1135.075,63.969z"/>
<path fill="none" stroke="#768065" stroke-miterlimit="10" d="M1131.825,63.961c0-11.287,9.183-20.461,20.469-20.461
	c11.328,0,20.531,9.174,20.531,20.461c0,11.364-9.203,20.538-20.531,20.538C1141.006,84.499,1131.825,75.325,1131.825,63.961z"/>
<path fill="none" stroke="#768065" stroke-miterlimit="10" d="M1128.325,63.953c0-13.217,10.75-23.953,23.96-23.953
	c13.264,0,24.04,10.736,24.04,23.953c0,13.31-10.776,24.046-24.04,24.046C1139.075,87.999,1128.325,77.263,1128.325,63.953z"/>
<path fill="none" stroke="#768065" stroke-miterlimit="10" d="M1124.325,63.946c0-15.417,12.541-27.946,27.954-27.946
	c15.473,0,28.046,12.529,28.046,27.946c0,15.524-12.572,28.053-28.046,28.053C1136.866,92.001,1124.325,79.471,1124.325,63.946z"/>
<path fill="none" stroke="#768065" stroke-miterlimit="10" d="M1112.825,63.924c0-21.748,17.69-39.424,39.437-39.424
	c21.828,0,39.563,17.676,39.563,39.424c0,21.901-17.735,39.575-39.563,39.575C1130.515,103.499,1112.825,85.825,1112.825,63.924z"/>
<circle fill="#231F20" cx="1152.325" cy="64" r="4"/>
<path fill="none" stroke="#768065" stroke-miterlimit="10" d="M1119.325,63.937c0-18.171,14.781-32.937,32.945-32.937
	c18.236,0,33.055,14.766,33.055,32.937c0,18.297-14.816,33.062-33.055,33.062C1134.106,97.001,1119.325,82.233,1119.325,63.937z"/>
<path fill="none" stroke="#768065" stroke-miterlimit="10" d="M1105.825,63.906c0-25.603,20.826-46.406,46.423-46.406
	c25.698,0,46.577,20.805,46.577,46.406c0,25.781-20.879,46.593-46.577,46.593C1126.651,110.499,1105.825,89.688,1105.825,63.906z"/>
<path fill="none" stroke="#768065" stroke-miterlimit="10" d="M1097.825,63.892c0-30.005,24.407-54.392,54.409-54.392
	c30.121,0,54.591,24.387,54.591,54.392c0,30.215-24.471,54.607-54.591,54.607C1122.232,118.499,1097.825,94.106,1097.825,63.892z"/>
<circle fill="none" stroke="#768065" stroke-miterlimit="10" cx="1280.449" cy="63.999" r="2.054"/>
<circle fill="none" stroke="#768065" stroke-miterlimit="10" cx="1280.448" cy="63.999" r="2.257"/>
<path fill="none" stroke="#768065" stroke-miterlimit="10" d="M1277.966,63.998c0-1.369,1.111-2.48,2.48-2.48
	c1.37,0,2.485,1.111,2.485,2.48c0,1.373-1.115,2.482-2.485,2.482C1279.078,66.48,1277.966,65.371,1277.966,63.998z"/>
<path fill="none" stroke="#768065" stroke-miterlimit="10" d="M1277.717,63.998c0-1.506,1.223-2.73,2.729-2.73
	c1.506,0,2.735,1.225,2.735,2.73c0,1.512-1.229,2.732-2.735,2.732C1278.94,66.73,1277.717,65.51,1277.717,63.998z"/>
<path fill="none" stroke="#768065" stroke-miterlimit="10" d="M1277.444,63.996c0-1.656,1.344-3,3.002-3
	c1.659,0,3.008,1.344,3.008,3c0,1.661-1.352,3.007-3.008,3.007C1278.788,67.003,1277.444,65.657,1277.444,63.996z"/>
<path fill="none" stroke="#768065" stroke-miterlimit="10" d="M1274.949,63.991c0-3.034,2.462-5.491,5.493-5.491
	c3.036,0,5.507,2.46,5.507,5.491c0,3.048-2.471,5.508-5.507,5.508C1277.411,69.499,1274.949,67.039,1274.949,63.991z"/>
<path fill="none" stroke="#768065" stroke-miterlimit="10" d="M1272.951,64.122c-0.074-4.134,3.223-7.548,7.354-7.622
	c4.142-0.073,7.568,3.221,7.643,7.355c0.073,4.153-3.234,7.569-7.375,7.643C1276.44,71.572,1273.025,68.275,1272.951,64.122z"/>
<path fill="none" stroke="#768065" stroke-miterlimit="10" d="M1270.949,63.984c0-5.232,4.253-9.484,9.485-9.484
	c5.249,0,9.515,4.252,9.515,9.484c0,5.265-4.266,9.515-9.515,9.515C1275.2,73.499,1270.949,69.249,1270.949,63.984z"/>
<path fill="none" stroke="#768065" stroke-miterlimit="10" d="M1268.449,63.979c0-6.607,5.372-11.979,11.979-11.979
	c6.63,0,12.021,5.369,12.021,11.979c0,6.65-5.391,12.021-12.021,12.021C1273.825,75.999,1268.449,70.629,1268.449,63.979z"/>
<path fill="none" stroke="#768065" stroke-miterlimit="10" d="M1265.949,63.973c0-7.986,6.494-14.474,14.479-14.474
	c8.01,0,14.521,6.489,14.521,14.474c0,8.038-6.512,14.526-14.521,14.526C1272.443,78.499,1265.949,72.011,1265.949,63.973z"/>
<path fill="none" stroke="#768065" stroke-miterlimit="10" d="M1263.199,63.969c0-9.5,7.728-17.219,17.224-17.219
	c9.531,0,17.276,7.719,17.276,17.219c0,9.562-7.745,17.28-17.276,17.28C1270.927,81.249,1263.199,73.53,1263.199,63.969z"/>
<path fill="none" stroke="#768065" stroke-miterlimit="10" d="M1259.949,63.961c0-11.287,9.183-20.461,20.469-20.461
	c11.328,0,20.531,9.174,20.531,20.461c0,11.364-9.203,20.538-20.531,20.538C1269.13,84.499,1259.949,75.325,1259.949,63.961z"/>
<path fill="none" stroke="#768065" stroke-miterlimit="10" d="M1256.449,63.953c0-13.217,10.75-23.953,23.96-23.953
	c13.264,0,24.04,10.736,24.04,23.953c0,13.31-10.776,24.046-24.04,24.046C1267.199,87.999,1256.449,77.263,1256.449,63.953z"/>
<path fill="none" stroke="#768065" stroke-miterlimit="10" d="M1252.449,63.946c0-15.417,12.541-27.946,27.954-27.946
	c15.473,0,28.046,12.529,28.046,27.946c0,15.523-12.572,28.053-28.046,28.053C1264.99,92.001,1252.449,79.47,1252.449,63.946z"/>
<path fill="none" stroke="#768065" stroke-miterlimit="10" d="M1240.949,63.924c0-21.748,17.69-39.424,39.437-39.424
	c21.828,0,39.563,17.676,39.563,39.424c0,21.901-17.735,39.575-39.563,39.575C1258.639,103.499,1240.949,85.825,1240.949,63.924z"/>
<path fill="none" stroke="#768065" stroke-miterlimit="10" d="M1217.949,63.875c0-34.408,27.992-62.375,62.396-62.375
	c34.542,0,62.605,27.967,62.605,62.375c0,34.651-28.061,62.624-62.605,62.624C1245.94,126.499,1217.949,98.526,1217.949,63.875z"/>
<circle fill="#231F20" cx="1280.449" cy="64" r="4"/>
<path fill="none" stroke="#768065" stroke-miterlimit="10" d="M1247.449,63.937c0-18.171,14.781-32.937,32.945-32.937
	c18.236,0,33.055,14.766,33.055,32.937c0,18.297-14.816,33.062-33.055,33.062C1262.23,97.001,1247.449,82.233,1247.449,63.937z"/>
<path fill="none" stroke="#768065" stroke-miterlimit="10" d="M1233.949,63.906c0-25.603,20.826-46.406,46.423-46.406
	c25.698,0,46.577,20.805,46.577,46.406c0,25.78-20.879,46.593-46.577,46.593C1254.775,110.499,1233.949,89.687,1233.949,63.906z"/>
<path fill="none" stroke="#768065" stroke-miterlimit="10" d="M1225.949,63.892c0-30.005,24.407-54.392,54.409-54.392
	c30.121,0,54.591,24.387,54.591,54.392c0,30.215-24.471,54.607-54.591,54.607C1250.356,118.499,1225.949,94.106,1225.949,63.892z"/>
</svg>
