<?xml version="1.0" encoding="utf-8"?>
<!-- Generator: Adobe Illustrator 15.1.0, SVG Export Plug-In . SVG Version: 6.00 Build 0)  -->
<!DOCTYPE svg PUBLIC "-//W3C//DTD SVG 1.1//EN" "http://www.w3.org/Graphics/SVG/1.1/DTD/svg11.dtd">
<svg version="1.1" id="Layer_1" xmlns="http://www.w3.org/2000/svg" xmlns:xlink="http://www.w3.org/1999/xlink" x="0px" y="0px"
	 width="1344px" height="128px" viewBox="0 0 1344 128" enable-background="new 0 0 1344 128" xml:space="preserve">
<g>
	<g opacity="0.67">
		<path fill="none" stroke="#768065" d="M82.501,64.024c0,10.199-8.269,18.475-18.476,18.475c-10.257,0-18.524-8.275-18.524-18.475
			c0-10.23,8.267-18.525,18.524-18.525C74.232,45.5,82.501,53.794,82.501,64.024z"/>
	</g>
	<circle fill="#231F20" cx="64.001" cy="64" r="1.5"/>
</g>
<circle fill="none" stroke="#768065" stroke-miterlimit="10" cx="192.395" cy="63.999" r="2.053"/>
<circle fill="none" stroke="#768065" stroke-miterlimit="10" cx="192.394" cy="63.999" r="2.257"/>
<path fill="none" stroke="#768065" stroke-miterlimit="10" d="M189.912,63.999c0-1.369,1.111-2.48,2.48-2.48
	c1.37,0,2.485,1.111,2.485,2.48c0,1.373-1.115,2.482-2.485,2.482C191.023,66.48,189.912,65.371,189.912,63.999z"/>
<path fill="none" stroke="#768065" stroke-miterlimit="10" d="M189.663,63.999c0-1.506,1.223-2.73,2.729-2.73
	c1.506,0,2.735,1.225,2.735,2.73c0,1.511-1.229,2.732-2.735,2.732C190.886,66.73,189.663,65.51,189.663,63.999z"/>
<path fill="none" stroke="#768065" stroke-miterlimit="10" d="M189.39,63.997c0-1.656,1.344-3,3.002-3c1.659,0,3.008,1.344,3.008,3
	c0,1.662-1.352,3.007-3.008,3.007C190.733,67.004,189.39,65.658,189.39,63.997z"/>
<path fill="none" stroke="#768065" stroke-miterlimit="10" d="M186.895,63.992c0-3.034,2.462-5.491,5.493-5.491
	c3.036,0,5.507,2.46,5.507,5.491c0,3.047-2.471,5.508-5.507,5.508C189.357,69.5,186.895,67.039,186.895,63.992z"/>
<path fill="none" stroke="#768065" stroke-miterlimit="10" d="M184.896,64.123c-0.074-4.134,3.223-7.548,7.354-7.622
	c4.142-0.073,7.568,3.221,7.643,7.355c0.073,4.154-3.234,7.57-7.375,7.642C188.386,71.572,184.971,68.275,184.896,64.123z"/>
<path fill="none" stroke="#768065" stroke-miterlimit="10" d="M182.895,63.985c0-5.232,4.253-9.484,9.485-9.484
	c5.249,0,9.515,4.252,9.515,9.484c0,5.265-4.266,9.515-9.515,9.515C187.146,73.5,182.895,69.25,182.895,63.985z"/>
<path fill="none" stroke="#768065" stroke-miterlimit="10" d="M180.395,63.979c0-6.607,5.372-11.979,11.979-11.979
	c6.63,0,12.021,5.369,12.021,11.979c0,6.65-5.391,12.021-12.021,12.021C185.771,76,180.395,70.629,180.395,63.979z"/>
<circle fill="#231F20" cx="192.395" cy="64" r="4"/>
<circle fill="none" stroke="#768065" stroke-miterlimit="10" cx="320.295" cy="63.999" r="2.054"/>
<circle fill="none" stroke="#768065" stroke-miterlimit="10" cx="320.294" cy="63.999" r="2.257"/>
<path fill="none" stroke="#768065" stroke-miterlimit="10" d="M317.813,63.998c0-1.369,1.111-2.48,2.48-2.48
	c1.37,0,2.485,1.111,2.485,2.48c0,1.373-1.115,2.482-2.485,2.482C318.924,66.48,317.813,65.371,317.813,63.998z"/>
<path fill="none" stroke="#768065" stroke-miterlimit="10" d="M317.564,63.998c0-1.506,1.223-2.73,2.729-2.73
	c1.506,0,2.735,1.225,2.735,2.73c0,1.512-1.229,2.732-2.735,2.732C318.787,66.73,317.564,65.51,317.564,63.998z"/>
<path fill="none" stroke="#768065" stroke-miterlimit="10" d="M317.291,63.996c0-1.656,1.344-3,3.002-3c1.659,0,3.008,1.344,3.008,3
	c0,1.661-1.352,3.007-3.008,3.007C318.634,67.003,317.291,65.657,317.291,63.996z"/>
<path fill="none" stroke="#768065" stroke-miterlimit="10" d="M314.796,63.991c0-3.034,2.462-5.491,5.493-5.491
	c3.036,0,5.507,2.46,5.507,5.491c0,3.048-2.471,5.508-5.507,5.508C317.258,69.499,314.796,67.039,314.796,63.991z"/>
<path fill="none" stroke="#768065" stroke-miterlimit="10" d="M312.797,64.122c-0.074-4.134,3.223-7.548,7.354-7.622
	c4.142-0.073,7.568,3.221,7.643,7.355c0.073,4.153-3.234,7.569-7.375,7.643C316.287,71.572,312.872,68.275,312.797,64.122z"/>
<path fill="none" stroke="#768065" stroke-miterlimit="10" d="M310.796,63.984c0-5.232,4.253-9.484,9.485-9.484
	c5.249,0,9.515,4.252,9.515,9.484c0,5.265-4.266,9.515-9.515,9.515C315.047,73.499,310.796,69.249,310.796,63.984z"/>
<path fill="none" stroke="#768065" stroke-miterlimit="10" d="M308.296,63.979c0-6.607,5.372-11.979,11.979-11.979
	c6.63,0,12.021,5.369,12.021,11.979c0,6.65-5.391,12.021-12.021,12.021C313.672,76,308.296,70.629,308.296,63.979z"/>
<path fill="none" stroke="#768065" stroke-miterlimit="10" d="M305.796,63.973c0-7.986,6.494-14.474,14.479-14.474
	c8.01,0,14.521,6.489,14.521,14.474c0,8.038-6.512,14.527-14.521,14.527C312.29,78.5,305.796,72.011,305.796,63.973z"/>
<path fill="none" stroke="#768065" stroke-miterlimit="10" d="M303.046,63.969c0-9.5,7.728-17.219,17.224-17.219
	c9.531,0,17.276,7.719,17.276,17.219c0,9.562-7.745,17.28-17.276,17.28C310.773,81.249,303.046,73.53,303.046,63.969z"/>
<circle fill="#231F20" cx="320.295" cy="64" r="4"/>
<circle fill="none" stroke="#768065" stroke-miterlimit="10" cx="448.361" cy="63.991" r="2.053"/>
<circle fill="none" stroke="#768065" stroke-miterlimit="10" cx="448.36" cy="63.991" r="2.257"/>
<path fill="none" stroke="#768065" stroke-miterlimit="10" d="M445.879,63.991c0-1.369,1.111-2.48,2.48-2.48
	c1.37,0,2.485,1.111,2.485,2.48c0,1.373-1.115,2.482-2.485,2.482C446.99,66.473,445.879,65.363,445.879,63.991z"/>
<path fill="none" stroke="#768065" stroke-miterlimit="10" d="M445.63,63.991c0-1.506,1.223-2.73,2.729-2.73
	c1.506,0,2.735,1.225,2.735,2.73c0,1.511-1.229,2.732-2.735,2.732C446.853,66.723,445.63,65.502,445.63,63.991z"/>
<path fill="none" stroke="#768065" stroke-miterlimit="10" d="M445.356,63.989c0-1.656,1.344-3,3.002-3c1.659,0,3.008,1.344,3.008,3
	c0,1.662-1.352,3.007-3.008,3.007C446.7,66.996,445.356,65.65,445.356,63.989z"/>
<path fill="none" stroke="#768065" stroke-miterlimit="10" d="M442.862,63.984c0-3.034,2.462-5.491,5.493-5.491
	c3.036,0,5.507,2.46,5.507,5.491c0,3.047-2.471,5.508-5.507,5.508C445.324,69.492,442.862,67.031,442.862,63.984z"/>
<path fill="none" stroke="#768065" stroke-miterlimit="10" d="M440.863,64.115c-0.074-4.134,3.223-7.548,7.354-7.622
	c4.142-0.073,7.568,3.221,7.643,7.355c0.073,4.154-3.234,7.57-7.375,7.642C444.353,71.564,440.938,68.268,440.863,64.115z"/>
<path fill="none" stroke="#768065" stroke-miterlimit="10" d="M438.862,63.977c0-5.232,4.253-9.484,9.485-9.484
	c5.249,0,9.515,4.252,9.515,9.484c0,5.265-4.266,9.515-9.515,9.515C443.113,73.492,438.862,69.242,438.862,63.977z"/>
<path fill="none" stroke="#768065" stroke-miterlimit="10" d="M436.362,63.971c0-6.607,5.372-11.979,11.979-11.979
	c6.63,0,12.021,5.369,12.021,11.979c0,6.65-5.391,12.021-12.021,12.021C441.738,75.992,436.362,70.621,436.362,63.971z"/>
<path fill="none" stroke="#768065" stroke-miterlimit="10" d="M433.862,63.965c0-7.986,6.494-14.474,14.479-14.474
	c8.01,0,14.521,6.489,14.521,14.474c0,8.039-6.512,14.527-14.521,14.527C440.356,78.492,433.862,72.004,433.862,63.965z"/>
<path fill="none" stroke="#768065" stroke-miterlimit="10" d="M431.112,63.961c0-9.5,7.728-17.219,17.224-17.219
	c9.531,0,17.276,7.719,17.276,17.219c0,9.562-7.745,17.281-17.276,17.281C438.839,81.242,431.112,73.523,431.112,63.961z"/>
<path fill="none" stroke="#768065" stroke-miterlimit="10" d="M427.862,63.954c0-11.287,9.183-20.461,20.469-20.461
	c11.328,0,20.531,9.174,20.531,20.461c0,11.365-9.203,20.539-20.531,20.539C437.043,84.492,427.862,75.318,427.862,63.954z"/>
<circle fill="#231F20" cx="448.361" cy="63.992" r="4"/>
<circle fill="none" stroke="#768065" stroke-miterlimit="10" cx="576.103" cy="64" r="2.054"/>
<circle fill="none" stroke="#768065" stroke-miterlimit="10" cx="576.102" cy="64" r="2.257"/>
<path fill="none" stroke="#768065" stroke-miterlimit="10" d="M573.62,63.999c0-1.37,1.111-2.481,2.48-2.481
	c1.37,0,2.485,1.111,2.485,2.481c0,1.373-1.115,2.482-2.485,2.482C574.731,66.481,573.62,65.372,573.62,63.999z"/>
<path fill="none" stroke="#768065" stroke-miterlimit="10" d="M573.371,63.999c0-1.506,1.223-2.731,2.729-2.731
	c1.506,0,2.735,1.225,2.735,2.731c0,1.512-1.229,2.732-2.735,2.732C574.594,66.731,573.371,65.511,573.371,63.999z"/>
<path fill="none" stroke="#768065" stroke-miterlimit="10" d="M573.098,63.997c0-1.657,1.344-3,3.002-3c1.659,0,3.008,1.344,3.008,3
	c0,1.66-1.352,3.006-3.008,3.006C574.441,67.003,573.098,65.657,573.098,63.997z"/>
<path fill="none" stroke="#768065" stroke-miterlimit="10" d="M570.603,63.991c0-3.034,2.462-5.491,5.493-5.491
	c3.036,0,5.507,2.46,5.507,5.491c0,3.049-2.471,5.508-5.507,5.508C573.065,69.499,570.603,67.04,570.603,63.991z"/>
<path fill="none" stroke="#768065" stroke-miterlimit="10" d="M568.604,64.122c-0.074-4.133,3.223-7.547,7.354-7.622
	c4.142-0.073,7.568,3.221,7.643,7.356c0.073,4.152-3.234,7.568-7.375,7.643C572.094,71.573,568.679,68.276,568.604,64.122z"/>
<path fill="none" stroke="#768065" stroke-miterlimit="10" d="M566.603,63.985c0-5.233,4.253-9.485,9.485-9.485
	c5.249,0,9.515,4.252,9.515,9.485c0,5.264-4.266,9.514-9.515,9.514C570.854,73.499,566.603,69.249,566.603,63.985z"/>
<path fill="none" stroke="#768065" stroke-miterlimit="10" d="M564.103,63.979c0-6.608,5.372-11.98,11.979-11.98
	c6.63,0,12.021,5.369,12.021,11.98c0,6.65-5.391,12.021-12.021,12.021C569.479,76.001,564.103,70.63,564.103,63.979z"/>
<path fill="none" stroke="#768065" stroke-miterlimit="10" d="M561.603,63.974c0-7.987,6.494-14.474,14.479-14.474
	c8.01,0,14.521,6.489,14.521,14.474c0,8.037-6.512,14.527-14.521,14.527C568.097,78.501,561.603,72.011,561.603,63.974z"/>
<path fill="none" stroke="#768065" stroke-miterlimit="10" d="M558.853,63.97c0-9.5,7.728-17.219,17.224-17.219
	c9.531,0,17.276,7.719,17.276,17.219c0,9.561-7.745,17.279-17.276,17.279C566.581,81.249,558.853,73.53,558.853,63.97z"/>
<path fill="none" stroke="#768065" stroke-miterlimit="10" d="M555.603,63.962c0-11.288,9.183-20.461,20.469-20.461
	c11.328,0,20.531,9.174,20.531,20.461c0,11.363-9.203,20.537-20.531,20.537C564.784,84.499,555.603,75.325,555.603,63.962z"/>
<path fill="none" stroke="#768065" stroke-miterlimit="10" d="M552.103,63.954c0-13.217,10.75-23.954,23.96-23.954
	c13.264,0,24.04,10.736,24.04,23.954c0,13.309-10.776,24.045-24.04,24.045C562.853,87.999,552.103,77.263,552.103,63.954z"/>
<path fill="none" stroke="#768065" stroke-miterlimit="10" d="M548.103,63.946C548.103,48.53,560.644,36,576.057,36
	c15.473,0,28.046,12.529,28.046,27.946c0,15.525-12.572,28.053-28.046,28.053C560.644,92.001,548.103,79.472,548.103,63.946z"/>
<circle fill="#231F20" cx="576.103" cy="64" r="3.999"/>
<circle fill="none" stroke="#768065" stroke-miterlimit="10" cx="704.249" cy="63.999" r="2.054"/>
<circle fill="none" stroke="#768065" stroke-miterlimit="10" cx="704.248" cy="63.999" r="2.257"/>
<path fill="none" stroke="#768065" stroke-miterlimit="10" d="M701.766,63.998c0-1.369,1.111-2.48,2.48-2.48
	c1.37,0,2.485,1.111,2.485,2.48c0,1.373-1.115,2.482-2.485,2.482C702.877,66.48,701.766,65.371,701.766,63.998z"/>
<path fill="none" stroke="#768065" stroke-miterlimit="10" d="M701.517,63.998c0-1.506,1.223-2.73,2.729-2.73
	c1.506,0,2.735,1.225,2.735,2.73c0,1.512-1.229,2.732-2.735,2.732C702.74,66.73,701.517,65.51,701.517,63.998z"/>
<path fill="none" stroke="#768065" stroke-miterlimit="10" d="M701.244,63.996c0-1.656,1.344-3,3.002-3c1.659,0,3.008,1.344,3.008,3
	c0,1.662-1.352,3.008-3.008,3.008C702.587,67.004,701.244,65.658,701.244,63.996z"/>
<path fill="none" stroke="#768065" stroke-miterlimit="10" d="M698.749,63.991c0-3.034,2.462-5.491,5.493-5.491
	c3.036,0,5.507,2.46,5.507,5.491c0,3.048-2.471,5.509-5.507,5.509C701.211,69.5,698.749,67.039,698.749,63.991z"/>
<path fill="none" stroke="#768065" stroke-miterlimit="10" d="M696.75,64.122c-0.074-4.134,3.223-7.548,7.354-7.622
	c4.142-0.073,7.568,3.221,7.643,7.355c0.073,4.154-3.234,7.57-7.375,7.643C700.24,71.572,696.825,68.275,696.75,64.122z"/>
<path fill="none" stroke="#768065" stroke-miterlimit="10" d="M694.749,63.984c0-5.232,4.253-9.484,9.485-9.484
	c5.249,0,9.515,4.252,9.515,9.484c0,5.266-4.266,9.516-9.515,9.516C699,73.5,694.749,69.25,694.749,63.984z"/>
<path fill="none" stroke="#768065" stroke-miterlimit="10" d="M692.249,63.979c0-6.607,5.372-11.979,11.979-11.979
	c6.63,0,12.021,5.369,12.021,11.979c0,6.65-5.391,12.021-12.021,12.021C697.625,76,692.249,70.629,692.249,63.979z"/>
<path fill="none" stroke="#768065" stroke-miterlimit="10" d="M689.749,63.973c0-7.986,6.494-14.474,14.479-14.474
	c8.01,0,14.521,6.489,14.521,14.474c0,8.039-6.512,14.527-14.521,14.527C696.243,78.5,689.749,72.012,689.749,63.973z"/>
<path fill="none" stroke="#768065" stroke-miterlimit="10" d="M686.999,63.969c0-9.5,7.728-17.219,17.224-17.219
	c9.531,0,17.276,7.719,17.276,17.219c0,9.562-7.745,17.281-17.276,17.281C694.727,81.25,686.999,73.531,686.999,63.969z"/>
<path fill="none" stroke="#768065" stroke-miterlimit="10" d="M683.749,63.961c0-11.287,9.183-20.461,20.469-20.461
	c11.328,0,20.531,9.174,20.531,20.461c0,11.365-9.203,20.539-20.531,20.539C692.93,84.5,683.749,75.326,683.749,63.961z"/>
<path fill="none" stroke="#768065" stroke-miterlimit="10" d="M680.249,63.953c0-13.217,10.75-23.953,23.96-23.953
	c13.264,0,24.04,10.736,24.04,23.953c0,13.311-10.776,24.047-24.04,24.047C690.999,88,680.249,77.264,680.249,63.953z"/>
<path fill="none" stroke="#768065" stroke-miterlimit="10" d="M676.249,63.946C676.249,48.529,688.79,36,704.203,36
	c15.473,0,28.046,12.529,28.046,27.946c0,15.524-12.572,28.054-28.046,28.054C688.79,92.002,676.249,79.471,676.249,63.946z"/>
<circle fill="#231F20" cx="704.249" cy="64" r="4"/>
<path fill="none" stroke="#768065" stroke-miterlimit="10" d="M671.249,63.937C671.249,45.766,686.03,31,704.194,31
	c18.236,0,33.055,14.766,33.055,32.937c0,18.298-14.816,33.063-33.055,33.063C686.03,97.002,671.249,82.234,671.249,63.937z"/>
<circle fill="none" stroke="#768065" stroke-miterlimit="10" cx="832.395" cy="63.998" r="2.053"/>
<circle fill="none" stroke="#768065" stroke-miterlimit="10" cx="832.394" cy="63.998" r="2.256"/>
<path fill="none" stroke="#768065" stroke-miterlimit="10" d="M829.912,63.997c0-1.369,1.111-2.48,2.48-2.48
	c1.37,0,2.485,1.111,2.485,2.48c0,1.372-1.115,2.481-2.485,2.481C831.023,66.479,829.912,65.369,829.912,63.997z"/>
<path fill="none" stroke="#768065" stroke-miterlimit="10" d="M829.663,63.997c0-1.506,1.223-2.73,2.729-2.73
	c1.506,0,2.735,1.225,2.735,2.73c0,1.511-1.229,2.731-2.735,2.731C830.886,66.729,829.663,65.508,829.663,63.997z"/>
<path fill="none" stroke="#768065" stroke-miterlimit="10" d="M829.39,63.995c0-1.656,1.344-3,3.002-3c1.659,0,3.008,1.344,3.008,3
	c0,1.661-1.352,3.007-3.008,3.007C830.733,67.002,829.39,65.656,829.39,63.995z"/>
<path fill="none" stroke="#768065" stroke-miterlimit="10" d="M826.895,63.99c0-3.034,2.462-5.491,5.493-5.491
	c3.036,0,5.507,2.46,5.507,5.491c0,3.047-2.471,5.508-5.507,5.508C829.357,69.498,826.895,67.037,826.895,63.99z"/>
<path fill="none" stroke="#768065" stroke-miterlimit="10" d="M824.896,64.121c-0.074-4.134,3.223-7.548,7.354-7.622
	c4.142-0.073,7.568,3.221,7.643,7.355c0.073,4.153-3.234,7.569-7.375,7.642C828.386,71.57,824.971,68.273,824.896,64.121z"/>
<path fill="none" stroke="#768065" stroke-miterlimit="10" d="M822.895,63.983c0-5.232,4.253-9.484,9.485-9.484
	c5.249,0,9.515,4.252,9.515,9.484c0,5.265-4.266,9.515-9.515,9.515C827.146,73.498,822.895,69.248,822.895,63.983z"/>
<path fill="none" stroke="#768065" stroke-miterlimit="10" d="M820.395,63.978c0-6.607,5.372-11.979,11.979-11.979
	c6.63,0,12.021,5.369,12.021,11.979c0,6.649-5.391,12.021-12.021,12.021C825.771,75.998,820.395,70.627,820.395,63.978z"/>
<path fill="none" stroke="#768065" stroke-miterlimit="10" d="M817.895,63.972c0-7.986,6.494-14.474,14.479-14.474
	c8.01,0,14.521,6.489,14.521,14.474c0,8.038-6.512,14.526-14.521,14.526C824.389,78.498,817.895,72.01,817.895,63.972z"/>
<path fill="none" stroke="#768065" stroke-miterlimit="10" d="M815.145,63.968c0-9.5,7.728-17.219,17.224-17.219
	c9.531,0,17.276,7.719,17.276,17.219c0,9.562-7.745,17.28-17.276,17.28C822.873,81.248,815.145,73.529,815.145,63.968z"/>
<path fill="none" stroke="#768065" stroke-miterlimit="10" d="M811.895,63.96c0-11.287,9.183-20.461,20.469-20.461
	c11.328,0,20.531,9.174,20.531,20.461c0,11.364-9.203,20.538-20.531,20.538C821.076,84.498,811.895,75.324,811.895,63.96z"/>
<path fill="none" stroke="#768065" stroke-miterlimit="10" d="M808.395,63.952c0-13.217,10.75-23.953,23.96-23.953
	c13.264,0,24.04,10.736,24.04,23.953c0,13.31-10.776,24.046-24.04,24.046C819.145,87.998,808.395,77.262,808.395,63.952z"/>
<path fill="none" stroke="#768065" stroke-miterlimit="10" d="M804.395,63.945c0-15.417,12.541-27.946,27.954-27.946
	c15.473,0,28.046,12.529,28.046,27.946c0,15.523-12.572,28.053-28.046,28.053C816.936,92,804.395,79.469,804.395,63.945z"/>
<path fill="none" stroke="#768065" stroke-miterlimit="10" d="M792.895,63.923c0-21.748,17.69-39.424,39.437-39.424
	c21.828,0,39.563,17.676,39.563,39.424c0,21.901-17.735,39.575-39.563,39.575C810.585,103.498,792.895,85.824,792.895,63.923z"/>
<path fill="#231F20" d="M832.395,59.999c2.21,0,4,1.79,4,4c0,2.206-1.79,3.999-4,3.999c-2.209,0-4-1.793-4-3.999
	C828.395,61.789,830.185,59.999,832.395,59.999z"/>
<path fill="none" stroke="#768065" stroke-miterlimit="10" d="M799.395,63.936c0-18.171,14.781-32.937,32.945-32.937
	c18.236,0,33.055,14.766,33.055,32.937c0,18.297-14.816,33.062-33.055,33.062C814.176,97,799.395,82.232,799.395,63.936z"/>
<circle fill="none" stroke="#768065" stroke-miterlimit="10" cx="960.478" cy="63.998" r="2.053"/>
<circle fill="none" stroke="#768065" stroke-miterlimit="10" cx="960.477" cy="63.998" r="2.257"/>
<path fill="none" stroke="#768065" stroke-miterlimit="10" d="M957.995,63.998c0-1.369,1.111-2.48,2.48-2.48
	c1.37,0,2.485,1.111,2.485,2.48c0,1.373-1.115,2.482-2.485,2.482C959.106,66.479,957.995,65.37,957.995,63.998z"/>
<path fill="none" stroke="#768065" stroke-miterlimit="10" d="M957.746,63.998c0-1.506,1.223-2.73,2.729-2.73
	c1.506,0,2.735,1.225,2.735,2.73c0,1.511-1.229,2.732-2.735,2.732C958.969,66.729,957.746,65.509,957.746,63.998z"/>
<path fill="none" stroke="#768065" stroke-miterlimit="10" d="M957.473,63.996c0-1.656,1.344-3,3.002-3c1.659,0,3.008,1.344,3.008,3
	c0,1.662-1.352,3.007-3.008,3.007C958.816,67.003,957.473,65.657,957.473,63.996z"/>
<path fill="none" stroke="#768065" stroke-miterlimit="10" d="M954.978,63.991c0-3.034,2.462-5.491,5.493-5.491
	c3.036,0,5.507,2.46,5.507,5.491c0,3.047-2.471,5.508-5.507,5.508C957.44,69.499,954.978,67.038,954.978,63.991z"/>
<path fill="none" stroke="#768065" stroke-miterlimit="10" d="M952.979,64.122c-0.074-4.134,3.223-7.548,7.354-7.622
	c4.142-0.073,7.568,3.221,7.643,7.355c0.073,4.154-3.234,7.57-7.375,7.642C956.469,71.571,953.054,68.274,952.979,64.122z"/>
<path fill="none" stroke="#768065" stroke-miterlimit="10" d="M950.978,63.984c0-5.232,4.253-9.484,9.485-9.484
	c5.249,0,9.515,4.252,9.515,9.484c0,5.265-4.266,9.515-9.515,9.515C955.229,73.499,950.978,69.249,950.978,63.984z"/>
<path fill="none" stroke="#768065" stroke-miterlimit="10" d="M948.478,63.978c0-6.607,5.372-11.979,11.979-11.979
	c6.63,0,12.021,5.369,12.021,11.979c0,6.65-5.391,12.021-12.021,12.021C953.854,75.999,948.478,70.628,948.478,63.978z"/>
<path fill="none" stroke="#768065" stroke-miterlimit="10" d="M945.978,63.972c0-7.986,6.494-14.474,14.479-14.474
	c8.01,0,14.521,6.489,14.521,14.474c0,8.039-6.512,14.527-14.521,14.527C952.472,78.499,945.978,72.011,945.978,63.972z"/>
<path fill="none" stroke="#768065" stroke-miterlimit="10" d="M943.228,63.968c0-9.5,7.728-17.219,17.224-17.219
	c9.531,0,17.276,7.719,17.276,17.219c0,9.562-7.745,17.281-17.276,17.281C950.956,81.249,943.228,73.53,943.228,63.968z"/>
<path fill="none" stroke="#768065" stroke-miterlimit="10" d="M939.978,63.96c0-11.287,9.183-20.461,20.469-20.461
	c11.328,0,20.531,9.174,20.531,20.461c0,11.365-9.203,20.539-20.531,20.539C949.159,84.499,939.978,75.325,939.978,63.96z"/>
<path fill="none" stroke="#768065" stroke-miterlimit="10" d="M936.478,63.953c0-13.217,10.75-23.953,23.96-23.953
	c13.264,0,24.04,10.736,24.04,23.953c0,13.31-10.776,24.046-24.04,24.046C947.228,87.999,936.478,77.263,936.478,63.953z"/>
<path fill="none" stroke="#768065" stroke-miterlimit="10" d="M932.478,63.946c0-15.417,12.541-27.946,27.954-27.946
	c15.473,0,28.046,12.529,28.046,27.946c0,15.524-12.572,28.053-28.046,28.053C945.019,92.001,932.478,79.47,932.478,63.946z"/>
<path fill="none" stroke="#768065" stroke-miterlimit="10" d="M920.978,63.923c0-21.748,17.69-39.424,39.437-39.424
	c21.828,0,39.563,17.676,39.563,39.424c0,21.902-17.735,39.576-39.563,39.576C938.668,103.499,920.978,85.825,920.978,63.923z"/>
<circle fill="#231F20" cx="960.478" cy="63.999" r="4"/>
<path fill="none" stroke="#768065" stroke-miterlimit="10" d="M927.478,63.936c0-18.171,14.781-32.937,32.945-32.937
	c18.236,0,33.055,14.766,33.055,32.937c0,18.297-14.816,33.063-33.055,33.063C942.259,97.001,927.478,82.233,927.478,63.936z"/>
<path fill="none" stroke="#768065" stroke-miterlimit="10" d="M913.978,63.906c0-25.603,20.826-46.406,46.423-46.406
	c25.698,0,46.577,20.805,46.577,46.406c0,25.781-20.879,46.593-46.577,46.593C934.804,110.499,913.978,89.687,913.978,63.906z"/>
<circle fill="none" stroke="#768065" stroke-miterlimit="10" cx="1088.186" cy="63.999" r="2.054"/>
<circle fill="none" stroke="#768065" stroke-miterlimit="10" cx="1088.185" cy="63.999" r="2.257"/>
<path fill="none" stroke="#768065" stroke-miterlimit="10" d="M1085.704,63.998c0-1.369,1.111-2.48,2.48-2.48
	c1.37,0,2.485,1.111,2.485,2.48c0,1.373-1.115,2.482-2.485,2.482C1086.815,66.48,1085.704,65.371,1085.704,63.998z"/>
<path fill="none" stroke="#768065" stroke-miterlimit="10" d="M1085.455,63.998c0-1.506,1.223-2.73,2.729-2.73
	c1.506,0,2.735,1.225,2.735,2.73c0,1.512-1.229,2.732-2.735,2.732C1086.677,66.73,1085.455,65.51,1085.455,63.998z"/>
<path fill="none" stroke="#768065" stroke-miterlimit="10" d="M1085.181,63.996c0-1.656,1.344-3,3.002-3
	c1.659,0,3.008,1.344,3.008,3c0,1.661-1.352,3.007-3.008,3.007C1086.525,67.003,1085.181,65.657,1085.181,63.996z"/>
<path fill="none" stroke="#768065" stroke-miterlimit="10" d="M1082.687,63.991c0-3.034,2.462-5.491,5.493-5.491
	c3.036,0,5.507,2.46,5.507,5.491c0,3.048-2.471,5.508-5.507,5.508C1085.148,69.499,1082.687,67.039,1082.687,63.991z"/>
<path fill="none" stroke="#768065" stroke-miterlimit="10" d="M1080.688,64.122c-0.074-4.134,3.223-7.548,7.354-7.622
	c4.142-0.073,7.568,3.221,7.643,7.355c0.073,4.153-3.234,7.569-7.375,7.643C1084.177,71.572,1080.762,68.275,1080.688,64.122z"/>
<path fill="none" stroke="#768065" stroke-miterlimit="10" d="M1078.687,63.984c0-5.232,4.253-9.484,9.485-9.484
	c5.249,0,9.515,4.252,9.515,9.484c0,5.265-4.266,9.515-9.515,9.515C1082.938,73.499,1078.687,69.249,1078.687,63.984z"/>
<path fill="none" stroke="#768065" stroke-miterlimit="10" d="M1076.187,63.979c0-6.607,5.372-11.979,11.979-11.979
	c6.63,0,12.021,5.369,12.021,11.979c0,6.65-5.391,12.021-12.021,12.021C1081.562,76,1076.187,70.629,1076.187,63.979z"/>
<path fill="none" stroke="#768065" stroke-miterlimit="10" d="M1073.687,63.973c0-7.986,6.494-14.474,14.479-14.474
	c8.01,0,14.521,6.489,14.521,14.474c0,8.038-6.512,14.527-14.521,14.527C1080.181,78.5,1073.687,72.011,1073.687,63.973z"/>
<path fill="none" stroke="#768065" stroke-miterlimit="10" d="M1070.937,63.969c0-9.5,7.728-17.219,17.224-17.219
	c9.531,0,17.276,7.719,17.276,17.219c0,9.562-7.745,17.28-17.276,17.28C1078.664,81.249,1070.937,73.53,1070.937,63.969z"/>
<path fill="none" stroke="#768065" stroke-miterlimit="10" d="M1067.687,63.961c0-11.287,9.183-20.461,20.469-20.461
	c11.328,0,20.531,9.174,20.531,20.461c0,11.364-9.203,20.538-20.531,20.538C1076.868,84.499,1067.687,75.325,1067.687,63.961z"/>
<path fill="none" stroke="#768065" stroke-miterlimit="10" d="M1064.187,63.953c0-13.217,10.75-23.953,23.96-23.953
	c13.264,0,24.04,10.736,24.04,23.953c0,13.31-10.776,24.046-24.04,24.046C1074.936,87.999,1064.187,77.263,1064.187,63.953z"/>
<path fill="none" stroke="#768065" stroke-miterlimit="10" d="M1060.187,63.946c0-15.417,12.541-27.946,27.954-27.946
	c15.473,0,28.046,12.529,28.046,27.946c0,15.524-12.572,28.053-28.046,28.053C1072.728,92.001,1060.187,79.471,1060.187,63.946z"/>
<path fill="none" stroke="#768065" stroke-miterlimit="10" d="M1048.687,63.924c0-21.748,17.69-39.424,39.437-39.424
	c21.828,0,39.563,17.676,39.563,39.424c0,21.901-17.735,39.575-39.563,39.575C1066.376,103.499,1048.687,85.825,1048.687,63.924z"/>
<circle fill="#231F20" cx="1088.186" cy="64" r="4"/>
<path fill="none" stroke="#768065" stroke-miterlimit="10" d="M1055.187,63.937c0-18.171,14.781-32.937,32.945-32.937
	c18.236,0,33.055,14.766,33.055,32.937c0,18.297-14.816,33.062-33.055,33.062C1069.967,97.001,1055.187,82.233,1055.187,63.937z"/>
<path fill="none" stroke="#768065" stroke-miterlimit="10" d="M1041.687,63.906c0-25.603,20.826-46.406,46.423-46.406
	c25.698,0,46.577,20.805,46.577,46.406c0,25.781-20.879,46.593-46.577,46.593C1062.513,110.499,1041.687,89.688,1041.687,63.906z"/>
<path fill="none" stroke="#768065" stroke-miterlimit="10" d="M1033.687,63.892c0-30.005,24.407-54.392,54.409-54.392
	c30.121,0,54.591,24.387,54.591,54.392c0,30.215-24.471,54.607-54.591,54.607C1058.094,118.499,1033.687,94.106,1033.687,63.892z"/>
<circle fill="none" stroke="#768065" stroke-miterlimit="10" cx="1216.311" cy="63.999" r="2.053"/>
<circle fill="none" stroke="#768065" stroke-miterlimit="10" cx="1216.31" cy="63.999" r="2.257"/>
<path fill="none" stroke="#768065" stroke-miterlimit="10" d="M1213.829,63.999c0-1.369,1.111-2.48,2.48-2.48
	c1.37,0,2.485,1.111,2.485,2.48c0,1.373-1.115,2.482-2.485,2.482C1214.94,66.48,1213.829,65.371,1213.829,63.999z"/>
<path fill="none" stroke="#768065" stroke-miterlimit="10" d="M1213.58,63.999c0-1.506,1.223-2.73,2.729-2.73
	c1.506,0,2.735,1.225,2.735,2.73c0,1.511-1.229,2.732-2.735,2.732C1214.802,66.73,1213.58,65.51,1213.58,63.999z"/>
<path fill="none" stroke="#768065" stroke-miterlimit="10" d="M1213.306,63.997c0-1.656,1.344-3,3.002-3
	c1.659,0,3.008,1.344,3.008,3c0,1.662-1.352,3.007-3.008,3.007C1214.65,67.004,1213.306,65.658,1213.306,63.997z"/>
<path fill="none" stroke="#768065" stroke-miterlimit="10" d="M1210.812,63.992c0-3.034,2.462-5.491,5.493-5.491
	c3.036,0,5.507,2.46,5.507,5.491c0,3.047-2.471,5.508-5.507,5.508C1213.273,69.5,1210.812,67.039,1210.812,63.992z"/>
<path fill="none" stroke="#768065" stroke-miterlimit="10" d="M1208.813,64.123c-0.074-4.134,3.223-7.548,7.354-7.622
	c4.142-0.073,7.568,3.221,7.643,7.355c0.073,4.154-3.234,7.57-7.375,7.642C1212.302,71.572,1208.887,68.275,1208.813,64.123z"/>
<path fill="none" stroke="#768065" stroke-miterlimit="10" d="M1206.812,63.985c0-5.232,4.253-9.484,9.485-9.484
	c5.249,0,9.515,4.252,9.515,9.484c0,5.265-4.266,9.515-9.515,9.515C1211.062,73.5,1206.812,69.25,1206.812,63.985z"/>
<path fill="none" stroke="#768065" stroke-miterlimit="10" d="M1204.312,63.979c0-6.607,5.372-11.979,11.979-11.979
	c6.63,0,12.021,5.369,12.021,11.979c0,6.65-5.391,12.021-12.021,12.021C1209.688,76,1204.312,70.629,1204.312,63.979z"/>
<path fill="none" stroke="#768065" stroke-miterlimit="10" d="M1201.812,63.973c0-7.986,6.494-14.474,14.479-14.474
	c8.01,0,14.521,6.489,14.521,14.474c0,8.039-6.512,14.527-14.521,14.527C1208.306,78.5,1201.812,72.012,1201.812,63.973z"/>
<path fill="none" stroke="#768065" stroke-miterlimit="10" d="M1199.062,63.969c0-9.5,7.728-17.219,17.224-17.219
	c9.531,0,17.276,7.719,17.276,17.219c0,9.562-7.745,17.281-17.276,17.281C1206.789,81.25,1199.062,73.531,1199.062,63.969z"/>
<path fill="none" stroke="#768065" stroke-miterlimit="10" d="M1195.812,63.961c0-11.287,9.183-20.461,20.469-20.461
	c11.328,0,20.531,9.174,20.531,20.461c0,11.365-9.203,20.539-20.531,20.539C1204.993,84.5,1195.812,75.326,1195.812,63.961z"/>
<path fill="none" stroke="#768065" stroke-miterlimit="10" d="M1192.312,63.954c0-13.217,10.75-23.953,23.96-23.953
	c13.264,0,24.04,10.736,24.04,23.953c0,13.31-10.776,24.046-24.04,24.046C1203.061,88,1192.312,77.264,1192.312,63.954z"/>
<path fill="none" stroke="#768065" stroke-miterlimit="10" d="M1188.312,63.947c0-15.417,12.541-27.946,27.954-27.946
	c15.473,0,28.046,12.529,28.046,27.946c0,15.524-12.572,28.053-28.046,28.053C1200.853,92.002,1188.312,79.471,1188.312,63.947z"/>
<path fill="none" stroke="#768065" stroke-miterlimit="10" d="M1176.812,63.924c0-21.748,17.69-39.424,39.437-39.424
	c21.828,0,39.563,17.676,39.563,39.424c0,21.902-17.735,39.576-39.563,39.576C1194.501,103.5,1176.812,85.826,1176.812,63.924z"/>
<path fill="none" stroke="#768065" stroke-miterlimit="10" d="M1153.811,63.875c0-34.408,27.992-62.375,62.396-62.375
	c34.542,0,62.605,27.967,62.605,62.375c0,34.652-28.061,62.625-62.605,62.625C1181.803,126.5,1153.811,98.527,1153.811,63.875z"/>
<circle fill="#231F20" cx="1216.311" cy="64" r="4"/>
<path fill="none" stroke="#768065" stroke-miterlimit="10" d="M1183.312,63.937c0-18.171,14.781-32.937,32.945-32.937
	c18.236,0,33.055,14.766,33.055,32.937c0,18.297-14.816,33.063-33.055,33.063C1198.092,97.002,1183.312,82.234,1183.312,63.937z"/>
<path fill="none" stroke="#768065" stroke-miterlimit="10" d="M1169.812,63.907c0-25.603,20.826-46.406,46.423-46.406
	c25.698,0,46.577,20.805,46.577,46.406c0,25.781-20.879,46.593-46.577,46.593C1190.638,110.5,1169.812,89.688,1169.812,63.907z"/>
<path fill="none" stroke="#768065" stroke-miterlimit="10" d="M1161.812,63.892c0-30.005,24.407-54.392,54.409-54.392
	c30.121,0,54.591,24.387,54.591,54.392c0,30.215-24.471,54.608-54.591,54.608C1186.219,118.5,1161.812,94.107,1161.812,63.892z"/>
</svg>
