<?xml version="1.0" encoding="utf-8"?>
<!-- Generator: Adobe Illustrator 15.1.0, SVG Export Plug-In . SVG Version: 6.00 Build 0)  -->
<!DOCTYPE svg PUBLIC "-//W3C//DTD SVG 1.1//EN" "http://www.w3.org/Graphics/SVG/1.1/DTD/svg11.dtd">
<svg version="1.1" id="Layer_1" xmlns="http://www.w3.org/2000/svg" xmlns:xlink="http://www.w3.org/1999/xlink" x="0px" y="0px"
	 width="896.502px" height="128px" viewBox="0 0 896.502 128" enable-background="new 0 0 896.502 128" xml:space="preserve">
<g>
	<g opacity="0.67">
		<path fill="none" stroke="#768065" d="M210.895,64.024c0,10.199-8.269,18.475-18.476,18.475c-10.257,0-18.524-8.274-18.524-18.475
			c0-10.23,8.267-18.525,18.524-18.525C202.626,45.5,210.895,53.794,210.895,64.024z"/>
	</g>
	<circle fill="#231F20" cx="192.395" cy="64" r="1.5"/>
</g>
<circle fill="#231F20" cx="64.001" cy="64" r="1.5"/>
<circle fill="none" stroke="#768065" stroke-miterlimit="10" cx="832.395" cy="63.998" r="2.053"/>
<circle fill="none" stroke="#768065" stroke-miterlimit="10" cx="832.394" cy="63.998" r="2.257"/>
<path fill="none" stroke="#768065" stroke-miterlimit="10" d="M829.912,63.997c0-1.369,1.111-2.48,2.479-2.48
	c1.37,0,2.485,1.111,2.485,2.48c0,1.373-1.115,2.481-2.485,2.481C831.023,66.479,829.912,65.37,829.912,63.997z"/>
<path fill="none" stroke="#768065" stroke-miterlimit="10" d="M829.663,63.997c0-1.505,1.223-2.73,2.729-2.73
	c1.507,0,2.735,1.225,2.735,2.73c0,1.512-1.229,2.731-2.735,2.731C830.886,66.729,829.663,65.509,829.663,63.997z"/>
<path fill="none" stroke="#768065" stroke-miterlimit="10" d="M829.39,63.995c0-1.656,1.345-3,3.002-3c1.659,0,3.009,1.344,3.009,3
	c0,1.662-1.353,3.008-3.009,3.008C830.733,67.003,829.39,65.657,829.39,63.995z"/>
<path fill="none" stroke="#768065" stroke-miterlimit="10" d="M826.895,63.991c0-3.035,2.463-5.492,5.493-5.492
	c3.036,0,5.507,2.46,5.507,5.492c0,3.047-2.471,5.508-5.507,5.508C829.357,69.499,826.895,67.038,826.895,63.991z"/>
<path fill="none" stroke="#768065" stroke-miterlimit="10" d="M824.896,64.122c-0.074-4.134,3.223-7.548,7.354-7.623
	c4.142-0.073,7.568,3.221,7.643,7.355c0.073,4.154-3.233,7.57-7.375,7.643C828.386,71.57,824.971,68.273,824.896,64.122z"/>
<path fill="none" stroke="#768065" stroke-miterlimit="10" d="M822.895,63.983c0-5.232,4.254-9.484,9.485-9.484
	c5.249,0,9.515,4.252,9.515,9.484c0,5.266-4.266,9.516-9.515,9.516C827.146,73.499,822.895,69.249,822.895,63.983z"/>
<path fill="none" stroke="#768065" stroke-miterlimit="10" d="M820.395,63.978c0-6.607,5.372-11.979,11.979-11.979
	c6.63,0,12.021,5.369,12.021,11.979c0,6.65-5.391,12.021-12.021,12.021C825.771,75.999,820.395,70.628,820.395,63.978z"/>
<path fill="none" stroke="#768065" stroke-miterlimit="10" d="M817.895,63.972c0-7.986,6.494-14.473,14.479-14.473
	c8.01,0,14.521,6.489,14.521,14.473c0,8.039-6.512,14.527-14.521,14.527C824.389,78.499,817.895,72.011,817.895,63.972z"/>
<path fill="none" stroke="#768065" stroke-miterlimit="10" d="M815.145,63.968c0-9.5,7.729-17.218,17.225-17.218
	c9.531,0,17.275,7.719,17.275,17.218c0,9.562-7.744,17.281-17.275,17.281C822.873,81.249,815.145,73.529,815.145,63.968z"/>
<path fill="none" stroke="#768065" stroke-miterlimit="10" d="M811.895,63.96c0-11.287,9.184-20.46,20.47-20.46
	c11.328,0,20.53,9.174,20.53,20.46c0,11.365-9.202,20.539-20.53,20.539C821.076,84.499,811.895,75.325,811.895,63.96z"/>
<path fill="none" stroke="#768065" stroke-miterlimit="10" d="M808.395,63.952c0-13.216,10.75-23.953,23.961-23.953
	c13.264,0,24.039,10.736,24.039,23.953c0,13.312-10.775,24.047-24.039,24.047C819.145,87.999,808.395,77.264,808.395,63.952z"/>
<path fill="none" stroke="#768065" stroke-miterlimit="10" d="M804.395,63.946c0-15.417,12.541-27.947,27.954-27.947
	c15.474,0,28.046,12.529,28.046,27.947c0,15.523-12.571,28.053-28.046,28.053C816.936,92.001,804.395,79.471,804.395,63.946z"/>
<path fill="none" stroke="#768065" stroke-miterlimit="10" d="M792.895,63.923c0-21.748,17.69-39.423,39.438-39.423
	c21.828,0,39.562,17.676,39.562,39.423c0,21.902-17.734,39.576-39.562,39.576C810.585,103.499,792.895,85.825,792.895,63.923z"/>
<circle fill="#231F20" cx="832.395" cy="63.999" r="4"/>
<path fill="none" stroke="#768065" stroke-miterlimit="10" d="M799.395,63.937C799.395,45.765,814.176,31,832.34,31
	c18.236,0,33.055,14.766,33.055,32.937c0,18.297-14.815,33.062-33.055,33.062C814.176,97.001,799.395,82.232,799.395,63.937z"/>
<path fill="none" stroke="#768065" stroke-miterlimit="10" d="M785.895,63.905c0-25.602,20.826-46.406,46.424-46.406
	c25.697,0,46.576,20.805,46.576,46.406c0,25.781-20.879,46.594-46.576,46.594C806.721,110.499,785.895,89.688,785.895,63.905z"/>
<circle fill="none" stroke="#768065" stroke-miterlimit="10" cx="704.249" cy="63.998" r="2.053"/>
<circle fill="none" stroke="#768065" stroke-miterlimit="10" cx="704.248" cy="63.998" r="2.257"/>
<path fill="none" stroke="#768065" stroke-miterlimit="10" d="M701.766,63.997c0-1.369,1.111-2.48,2.48-2.48
	c1.37,0,2.484,1.111,2.484,2.48c0,1.373-1.114,2.481-2.484,2.481C702.877,66.479,701.766,65.37,701.766,63.997z"/>
<path fill="none" stroke="#768065" stroke-miterlimit="10" d="M701.517,63.997c0-1.505,1.224-2.73,2.729-2.73
	s2.735,1.225,2.735,2.73c0,1.512-1.229,2.731-2.735,2.731S701.517,65.509,701.517,63.997z"/>
<path fill="none" stroke="#768065" stroke-miterlimit="10" d="M701.244,63.995c0-1.656,1.344-3,3.002-3c1.659,0,3.008,1.344,3.008,3
	c0,1.662-1.352,3.008-3.008,3.008C702.587,67.003,701.244,65.657,701.244,63.995z"/>
<path fill="none" stroke="#768065" stroke-miterlimit="10" d="M698.749,63.991c0-3.035,2.462-5.492,5.493-5.492
	c3.036,0,5.507,2.46,5.507,5.492c0,3.047-2.471,5.508-5.507,5.508C701.211,69.499,698.749,67.038,698.749,63.991z"/>
<path fill="none" stroke="#768065" stroke-miterlimit="10" d="M696.75,64.122c-0.074-4.134,3.223-7.548,7.354-7.623
	c4.143-0.073,7.568,3.221,7.644,7.355c0.073,4.154-3.234,7.57-7.375,7.643C700.24,71.57,696.825,68.273,696.75,64.122z"/>
<path fill="none" stroke="#768065" stroke-miterlimit="10" d="M694.749,63.983c0-5.232,4.253-9.484,9.485-9.484
	c5.249,0,9.515,4.252,9.515,9.484c0,5.266-4.266,9.516-9.515,9.516C699,73.499,694.749,69.249,694.749,63.983z"/>
<path fill="none" stroke="#768065" stroke-miterlimit="10" d="M692.249,63.978c0-6.607,5.372-11.979,11.979-11.979
	c6.63,0,12.021,5.369,12.021,11.979c0,6.65-5.391,12.021-12.021,12.021C697.625,75.999,692.249,70.628,692.249,63.978z"/>
<path fill="none" stroke="#768065" stroke-miterlimit="10" d="M689.749,63.972c0-7.986,6.494-14.473,14.479-14.473
	c8.01,0,14.521,6.489,14.521,14.473c0,8.039-6.512,14.527-14.521,14.527C696.243,78.499,689.749,72.011,689.749,63.972z"/>
<path fill="none" stroke="#768065" stroke-miterlimit="10" d="M686.999,63.968c0-9.5,7.728-17.218,17.224-17.218
	c9.531,0,17.276,7.719,17.276,17.218c0,9.562-7.745,17.281-17.276,17.281C694.727,81.249,686.999,73.529,686.999,63.968z"/>
<path fill="none" stroke="#768065" stroke-miterlimit="10" d="M683.749,63.96c0-11.287,9.183-20.46,20.469-20.46
	c11.328,0,20.531,9.174,20.531,20.46c0,11.365-9.203,20.539-20.531,20.539C692.93,84.499,683.749,75.325,683.749,63.96z"/>
<path fill="none" stroke="#768065" stroke-miterlimit="10" d="M680.249,63.952c0-13.216,10.75-23.953,23.96-23.953
	c13.264,0,24.04,10.736,24.04,23.953c0,13.312-10.776,24.047-24.04,24.047C690.999,87.999,680.249,77.264,680.249,63.952z"/>
<path fill="none" stroke="#768065" stroke-miterlimit="10" d="M676.249,63.946C676.249,48.529,688.79,36,704.203,36
	c15.473,0,28.046,12.529,28.046,27.947c0,15.524-12.572,28.053-28.046,28.053C688.79,92.001,676.249,79.471,676.249,63.946z"/>
<path fill="none" stroke="#768065" stroke-miterlimit="10" d="M664.749,63.923c0-21.748,17.69-39.423,39.437-39.423
	c21.828,0,39.563,17.676,39.563,39.423c0,21.902-17.735,39.576-39.563,39.576C682.439,103.499,664.749,85.825,664.749,63.923z"/>
<circle fill="#231F20" cx="704.249" cy="63.999" r="4"/>
<path fill="none" stroke="#768065" stroke-miterlimit="10" d="M671.249,63.937C671.249,45.765,686.03,31,704.194,31
	c18.235,0,33.055,14.766,33.055,32.937c0,18.297-14.816,33.062-33.055,33.062C686.03,97.001,671.249,82.232,671.249,63.937z"/>
<circle fill="none" stroke="#768065" stroke-miterlimit="10" cx="576.104" cy="63.999" r="2.054"/>
<circle fill="none" stroke="#768065" stroke-miterlimit="10" cx="576.102" cy="63.999" r="2.257"/>
<path fill="none" stroke="#768065" stroke-miterlimit="10" d="M573.621,63.998c0-1.369,1.111-2.48,2.479-2.48
	c1.37,0,2.485,1.111,2.485,2.48c0,1.374-1.115,2.482-2.485,2.482C574.732,66.48,573.621,65.371,573.621,63.998z"/>
<path fill="none" stroke="#768065" stroke-miterlimit="10" d="M573.372,63.998c0-1.505,1.223-2.73,2.729-2.73
	c1.507,0,2.735,1.225,2.735,2.73c0,1.512-1.229,2.732-2.735,2.732S573.372,65.51,573.372,63.998z"/>
<path fill="none" stroke="#768065" stroke-miterlimit="10" d="M573.098,63.996c0-1.656,1.345-3,3.002-3c1.659,0,3.009,1.344,3.009,3
	c0,1.663-1.353,3.008-3.009,3.008C574.442,67.004,573.098,65.658,573.098,63.996z"/>
<path fill="none" stroke="#768065" stroke-miterlimit="10" d="M570.604,63.992c0-3.035,2.463-5.492,5.493-5.492
	c3.036,0,5.507,2.46,5.507,5.492c0,3.047-2.471,5.508-5.507,5.508C573.065,69.5,570.604,67.039,570.604,63.992z"/>
<path fill="none" stroke="#768065" stroke-miterlimit="10" d="M568.605,64.123c-0.074-4.134,3.223-7.548,7.354-7.623
	c4.142-0.073,7.568,3.221,7.643,7.355c0.073,4.155-3.233,7.571-7.375,7.643C572.094,71.572,568.679,68.275,568.605,64.123z"/>
<path fill="none" stroke="#768065" stroke-miterlimit="10" d="M566.604,63.984c0-5.232,4.254-9.484,9.485-9.484
	c5.249,0,9.515,4.252,9.515,9.484c0,5.266-4.266,9.516-9.515,9.516C570.854,73.5,566.604,69.25,566.604,63.984z"/>
<path fill="none" stroke="#768065" stroke-miterlimit="10" d="M564.104,63.978c0-6.607,5.372-11.979,11.979-11.979
	c6.63,0,12.021,5.369,12.021,11.979c0,6.651-5.391,12.022-12.021,12.022C569.479,76,564.104,70.629,564.104,63.978z"/>
<path fill="none" stroke="#768065" stroke-miterlimit="10" d="M561.604,63.972c0-7.986,6.494-14.473,14.479-14.473
	c8.01,0,14.521,6.489,14.521,14.473c0,8.04-6.512,14.528-14.521,14.528C568.098,78.5,561.604,72.012,561.604,63.972z"/>
<path fill="none" stroke="#768065" stroke-miterlimit="10" d="M558.854,63.968c0-9.5,7.729-17.218,17.225-17.218
	c9.531,0,17.275,7.719,17.275,17.218c0,9.563-7.744,17.282-17.275,17.282C566.581,81.25,558.854,73.531,558.854,63.968z"/>
<path fill="none" stroke="#768065" stroke-miterlimit="10" d="M555.604,63.96c0-11.287,9.184-20.46,20.47-20.46
	c11.328,0,20.53,9.174,20.53,20.46c0,11.366-9.202,20.54-20.53,20.54C564.785,84.5,555.604,75.326,555.604,63.96z"/>
<path fill="none" stroke="#768065" stroke-miterlimit="10" d="M552.104,63.953c0-13.216,10.75-23.953,23.961-23.953
	c13.264,0,24.039,10.736,24.039,23.953c0,13.311-10.775,24.047-24.039,24.047C562.854,88,552.104,77.264,552.104,63.953z"/>
<path fill="none" stroke="#768065" stroke-miterlimit="10" d="M548.104,63.947C548.104,48.53,560.645,36,576.058,36
	c15.474,0,28.046,12.529,28.046,27.947c0,15.524-12.571,28.053-28.046,28.053C560.645,92.002,548.104,79.471,548.104,63.947z"/>
<circle fill="#231F20" cx="576.104" cy="64" r="4"/>
<path fill="none" stroke="#768065" stroke-miterlimit="10" d="M543.104,63.937c0-18.171,14.781-32.937,32.945-32.937
	c18.236,0,33.055,14.766,33.055,32.937c0,18.297-14.815,33.063-33.055,33.063C557.884,97.002,543.104,82.234,543.104,63.937z"/>
<circle fill="none" stroke="#768065" stroke-miterlimit="10" cx="448.374" cy="63.999" r="2.054"/>
<circle fill="none" stroke="#768065" stroke-miterlimit="10" cx="448.373" cy="63.999" r="2.257"/>
<path fill="none" stroke="#768065" stroke-miterlimit="10" d="M445.891,63.997c0-1.369,1.111-2.48,2.48-2.48
	c1.37,0,2.485,1.111,2.485,2.48c0,1.373-1.115,2.483-2.485,2.483C447.002,66.48,445.891,65.37,445.891,63.997z"/>
<path fill="none" stroke="#768065" stroke-miterlimit="10" d="M445.642,63.997c0-1.505,1.224-2.73,2.729-2.73
	s2.735,1.225,2.735,2.73c0,1.513-1.229,2.733-2.735,2.733S445.642,65.51,445.642,63.997z"/>
<path fill="none" stroke="#768065" stroke-miterlimit="10" d="M445.369,63.995c0-1.656,1.344-3,3.002-3c1.659,0,3.008,1.344,3.008,3
	c0,1.663-1.352,3.009-3.008,3.009C446.712,67.004,445.369,65.658,445.369,63.995z"/>
<path fill="none" stroke="#768065" stroke-miterlimit="10" d="M442.874,63.991c0-3.035,2.462-5.492,5.493-5.492
	c3.036,0,5.507,2.46,5.507,5.492c0,3.048-2.471,5.509-5.507,5.509C445.336,69.5,442.874,67.039,442.874,63.991z"/>
<path fill="none" stroke="#768065" stroke-miterlimit="10" d="M440.875,64.122c-0.074-4.134,3.223-7.548,7.354-7.623
	c4.143-0.073,7.568,3.221,7.644,7.355c0.073,4.155-3.234,7.571-7.375,7.644C444.365,71.572,440.95,68.275,440.875,64.122z"/>
<path fill="none" stroke="#768065" stroke-miterlimit="10" d="M438.874,63.983c0-5.232,4.253-9.484,9.485-9.484
	c5.249,0,9.515,4.252,9.515,9.484c0,5.267-4.266,9.517-9.515,9.517C443.125,73.5,438.874,69.25,438.874,63.983z"/>
<path fill="none" stroke="#768065" stroke-miterlimit="10" d="M436.374,63.978c0-6.607,5.372-11.979,11.979-11.979
	c6.631,0,12.021,5.369,12.021,11.979c0,6.651-5.391,12.022-12.021,12.022C441.75,76,436.374,70.629,436.374,63.978z"/>
<path fill="none" stroke="#768065" stroke-miterlimit="10" d="M433.874,63.972c0-7.986,6.494-14.473,14.479-14.473
	c8.011,0,14.521,6.489,14.521,14.473c0,8.04-6.512,14.528-14.521,14.528C440.368,78.5,433.874,72.012,433.874,63.972z"/>
<path fill="none" stroke="#768065" stroke-miterlimit="10" d="M431.124,63.968c0-9.5,7.728-17.218,17.224-17.218
	c9.531,0,17.276,7.719,17.276,17.218c0,9.563-7.745,17.282-17.276,17.282C438.852,81.25,431.124,73.531,431.124,63.968z"/>
<path fill="none" stroke="#768065" stroke-miterlimit="10" d="M427.874,63.96c0-11.287,9.183-20.46,20.469-20.46
	c11.328,0,20.531,9.174,20.531,20.46c0,11.366-9.203,20.54-20.531,20.54C437.055,84.5,427.874,75.326,427.874,63.96z"/>
<path fill="none" stroke="#768065" stroke-miterlimit="10" d="M424.374,63.952c0-13.216,10.75-23.953,23.96-23.953
	c13.264,0,24.04,10.736,24.04,23.953c0,13.312-10.776,24.048-24.04,24.048C435.124,88,424.374,77.264,424.374,63.952z"/>
<circle fill="#231F20" cx="448.374" cy="64" r="4"/>
<circle fill="none" stroke="#768065" stroke-miterlimit="10" cx="320.295" cy="63.999" r="2.053"/>
<circle fill="none" stroke="#768065" stroke-miterlimit="10" cx="320.294" cy="63.999" r="2.256"/>
<path fill="none" stroke="#768065" stroke-miterlimit="10" d="M317.813,63.998c0-1.369,1.111-2.48,2.48-2.48
	c1.37,0,2.485,1.111,2.485,2.48c0,1.373-1.115,2.482-2.485,2.482C318.924,66.479,317.813,65.37,317.813,63.998z"/>
<path fill="none" stroke="#768065" stroke-miterlimit="10" d="M317.564,63.998c0-1.505,1.223-2.73,2.729-2.73
	s2.735,1.225,2.735,2.73c0,1.511-1.229,2.732-2.735,2.732C318.787,66.729,317.564,65.509,317.564,63.998z"/>
<path fill="none" stroke="#768065" stroke-miterlimit="10" d="M317.291,63.996c0-1.656,1.344-3,3.002-3c1.659,0,3.008,1.344,3.008,3
	c0,1.662-1.352,3.007-3.008,3.007C318.634,67.003,317.291,65.657,317.291,63.996z"/>
<path fill="none" stroke="#768065" stroke-miterlimit="10" d="M314.796,63.992c0-3.035,2.462-5.492,5.493-5.492
	c3.036,0,5.507,2.46,5.507,5.492c0,3.046-2.471,5.507-5.507,5.507C317.258,69.499,314.796,67.038,314.796,63.992z"/>
<path fill="none" stroke="#768065" stroke-miterlimit="10" d="M312.797,64.123c-0.074-4.134,3.223-7.548,7.354-7.623
	c4.142-0.073,7.568,3.221,7.643,7.355c0.073,4.154-3.234,7.57-7.375,7.642C316.287,71.57,312.872,68.273,312.797,64.123z"/>
<path fill="none" stroke="#768065" stroke-miterlimit="10" d="M310.796,63.984c0-5.232,4.253-9.484,9.485-9.484
	c5.249,0,9.515,4.252,9.515,9.484c0,5.265-4.266,9.515-9.515,9.515C315.047,73.499,310.796,69.249,310.796,63.984z"/>
<path fill="none" stroke="#768065" stroke-miterlimit="10" d="M308.296,63.978c0-6.607,5.372-11.979,11.979-11.979
	c6.63,0,12.021,5.369,12.021,11.979c0,6.65-5.391,12.021-12.021,12.021C313.672,75.999,308.296,70.628,308.296,63.978z"/>
<path fill="none" stroke="#768065" stroke-miterlimit="10" d="M305.796,63.972c0-7.986,6.494-14.473,14.479-14.473
	c8.01,0,14.521,6.489,14.521,14.473c0,8.039-6.512,14.527-14.521,14.527C312.29,78.499,305.796,72.011,305.796,63.972z"/>
<path fill="none" stroke="#768065" stroke-miterlimit="10" d="M303.046,63.968c0-9.5,7.728-17.218,17.224-17.218
	c9.531,0,17.276,7.719,17.276,17.218c0,9.562-7.745,17.281-17.276,17.281C310.773,81.249,303.046,73.529,303.046,63.968z"/>
<path fill="none" stroke="#768065" stroke-miterlimit="10" d="M299.796,63.96c0-11.287,9.183-20.46,20.469-20.46
	c11.328,0,20.531,9.174,20.531,20.46c0,11.365-9.203,20.539-20.531,20.539C308.977,84.499,299.796,75.325,299.796,63.96z"/>
<circle fill="#231F20" cx="320.295" cy="64" r="4"/>
</svg>
